<svg width="30" height="39" viewBox="0 0 30 39" fill="none" xmlns="http://www.w3.org/2000/svg">
<path d="M21 36.865V26C21 25.4477 20.5523 25 20 25H10C9.44772 25 9 25.4477 9 26V36.865C9 37.7128 9.98886 38.176 10.6402 37.6332L14.3598 34.5335C14.7307 34.2244 15.2693 34.2244 15.6402 34.5335L19.3598 37.6332C20.0111 38.176 21 37.7128 21 36.865Z" fill="#606BD2"/>
<path d="M14.1721 1.22183C14.5688 0.636399 15.4312 0.636398 15.8279 1.22182L18.0443 4.49306C18.3005 4.87118 18.7804 5.02766 19.2102 4.87327L22.8952 3.54972C23.557 3.312 24.251 3.8136 24.2329 4.5166L24.1297 8.52189C24.1181 8.9727 24.4097 9.37551 24.8415 9.50532L28.6228 10.6418C29.2901 10.8424 29.5529 11.6469 29.1325 12.2027L26.7168 15.3968C26.4469 15.7536 26.4469 16.2464 26.7168 16.6032L29.1325 19.7973C29.5529 20.3531 29.2902 21.1576 28.6228 21.3582L24.8415 22.4947C24.4097 22.6245 24.1181 23.0273 24.1297 23.4781L24.2329 27.4834C24.251 28.1864 23.557 28.688 22.8952 28.4503L20.9146 27.7389L19.2102 27.1267C18.7804 26.9723 18.3005 27.1288 18.0443 27.5069L15.8279 30.7782C15.4312 31.3636 14.5688 31.3636 14.1721 30.7782L11.9557 27.5069C11.6995 27.1288 11.2196 26.9723 10.7898 27.1267L9.08542 27.7389L7.10483 28.4503C6.44299 28.688 5.74901 28.1864 5.76712 27.4834L5.8703 23.4781C5.88191 23.0273 5.59034 22.6245 5.15846 22.4947L1.3772 21.3582C0.709847 21.1576 0.447112 20.3531 0.867456 19.7973L3.28316 16.6032C3.55306 16.2464 3.55306 15.7536 3.28316 15.3968L0.867456 12.2027C0.447112 11.6469 0.709848 10.8424 1.3772 10.6418L5.15846 9.50532C5.59034 9.37551 5.88191 8.9727 5.8703 8.52189L5.76712 4.5166C5.74901 3.81361 6.44299 3.312 7.10482 3.54972L10.7898 4.87327C11.2196 5.02766 11.6995 4.87118 11.9557 4.49306L14.1721 1.22183Z" fill="#C4C4C4"/>
<circle cx="15" cy="16" r="9" fill="#DADADA"/>
</svg>
