<svg width="20" height="17" viewBox="0 0 20 17" fill="none" xmlns="http://www.w3.org/2000/svg">
<g clip-path="url(#clip0)">
<path d="M16.1004 9.39999L13.1004 9.39999C12.7004 9.39999 12.3004 9.09999 12.3004 8.69999C12.3004 8.29999 12.6004 7.89999 13.0004 7.89999L16.0004 7.89999C16.6004 7.89999 16.9004 8.19999 16.9004 8.59999C16.9004 8.79999 16.8004 8.99999 16.7004 9.19999C16.5004 9.29999 16.4004 9.39999 16.1004 9.39999Z" fill="#434345"/>
<path d="M10.2004 9.49999L2.60039 9.59999L8.70039 15.8C8.90039 16 8.90039 16.5 8.60039 16.8C8.30039 17.1 7.80039 17.1 7.50039 16.8L0.200389 9.39999C-0.099611 9.09999 -0.0996111 8.6 0.200389 8.3L7.60039 0.799994C7.70039 0.699993 7.90039 0.599995 8.10039 0.599995C8.30039 0.599995 8.50039 0.699993 8.60039 0.799994C8.90039 1.09999 8.90039 1.59999 8.60039 1.89999L2.60039 8L10.1004 7.99999C10.6004 7.99999 10.9004 8.29999 10.9004 8.69999C10.9004 8.89999 10.8004 9.09999 10.7004 9.19999C10.5004 9.39999 10.4004 9.49999 10.2004 9.49999Z" fill="#434345"/>
<path d="M19.1004 9.39999C18.7004 9.39999 18.3004 9.09999 18.3004 8.69999C18.3004 8.49999 18.4004 8.29999 18.5004 8.19999C18.7004 7.89999 18.9004 7.89999 19.1004 7.89999C19.6004 7.89999 19.9004 8.19999 19.9004 8.59999C19.9004 8.99999 19.6004 9.39999 19.1004 9.39999Z" fill="#434345"/>
</g>
<defs>
<clipPath id="clip0">
<rect width="19.9" height="16.5" fill="white" transform="translate(19.9004 17) rotate(180)"/>
</clipPath>
</defs>
</svg>
