<svg width="20" height="17" viewBox="0 0 20 17" fill="none" xmlns="http://www.w3.org/2000/svg">
<g clip-path="url(#clip0)">
<path d="M3.8 7.60001H6.8C7.2 7.60001 7.6 7.90001 7.6 8.30001C7.6 8.70001 7.3 9.10001 6.9 9.10001H3.9C3.3 9.10001 3 8.80001 3 8.40001C3 8.20001 3.1 8.00001 3.2 7.80001C3.4 7.70001 3.5 7.60001 3.8 7.60001Z" fill="#434345"/>
<path d="M9.7 7.50001L17.3 7.40001L11.2 1.20001C11 1.00001 11 0.500006 11.3 0.200006C11.6 -0.0999939 12.1 -0.0999939 12.4 0.200006L19.7 7.60001C20 7.90001 20 8.40001 19.7 8.70001L12.3 16.2C12.2 16.3 12 16.4 11.8 16.4C11.6 16.4 11.4 16.3 11.3 16.2C11 15.9 11 15.4 11.3 15.1L17.3 9.00001H9.8C9.3 9.00001 9 8.70001 9 8.30001C9 8.10001 9.1 7.90001 9.2 7.80001C9.4 7.60001 9.5 7.50001 9.7 7.50001Z" fill="#434345"/>
<path d="M0.8 7.60001C1.2 7.60001 1.6 7.90001 1.6 8.30001C1.6 8.50001 1.5 8.70001 1.4 8.80001C1.2 9.10001 1 9.10001 0.8 9.10001C0.3 9.10001 0 8.80001 0 8.40001C0 8.00001 0.3 7.60001 0.8 7.60001Z" fill="#434345"/>
</g>
<defs>
<clipPath id="clip0">
<rect width="19.9" height="16.5" fill="white"/>
</clipPath>
</defs>
</svg>
