<svg width="24" height="24" viewBox="0 0 24 24" fill="none" xmlns="http://www.w3.org/2000/svg">
<path d="M11.037 10.8783C10.5029 10.8768 9.98283 11.0492 9.55513 11.3696C9.12744 11.69 8.81532 12.1409 8.66582 12.6545C8.51633 13.1681 8.53757 13.7164 8.72634 14.2168C8.91512 14.7172 9.26119 15.1426 9.71238 15.4288C10.1636 15.7151 10.6954 15.8466 11.2278 15.8037C11.7601 15.7607 12.2641 15.5456 12.6637 15.1907C13.0634 14.8358 13.337 14.3604 13.4433 13.8362C13.5497 13.3119 13.483 12.7673 13.2534 12.2843L17.9406 7.58936H18.7615C18.8695 7.58998 18.9766 7.56924 19.0766 7.52832C19.1766 7.48741 19.2676 7.42712 19.3443 7.35091L22.0039 4.67867L20.2637 4.10311L19.689 2.35999L17.0212 5.02401C16.9451 5.10083 16.8849 5.19195 16.8441 5.29213C16.8032 5.39231 16.7825 5.49958 16.7831 5.60779V6.43002L12.0959 11.1249C11.7657 10.9647 11.4039 10.8804 11.037 10.8783Z" fill="white"/>
<path d="M9.67441 9.47226C10.4652 9.18071 11.3286 9.15188 12.137 9.39004C12.2607 9.427 12.3919 9.43049 12.5174 9.40016C12.6428 9.36984 12.758 9.30677 12.8512 9.21737L13.0564 9.02004C13.1424 8.93355 13.2046 8.82624 13.2369 8.70854C13.2693 8.59083 13.2706 8.46676 13.2409 8.34838C13.2111 8.23 13.1513 8.12135 13.0672 8.03301C12.9831 7.94467 12.8776 7.87964 12.7609 7.84425C11.835 7.56107 10.8533 7.51303 9.90426 7.70447C8.88384 7.91344 7.93931 8.39627 7.17167 9.10135C6.40403 9.80643 5.84214 10.7072 5.5461 11.7074C5.25005 12.7077 5.23098 13.7697 5.49092 14.7799C5.75085 15.7901 6.28003 16.7106 7.02186 17.4428C7.76368 18.1751 8.69026 18.6917 9.70252 18.9373C10.7148 19.1829 11.7746 19.1483 12.7688 18.8372C13.7629 18.5261 14.6539 17.9502 15.3466 17.171C16.0392 16.3919 16.5074 15.4389 16.7011 14.4139C16.8746 13.4885 16.8211 12.5348 16.5452 11.6347C16.5098 11.5179 16.4449 11.4122 16.3567 11.328C16.2685 11.2437 16.16 11.1838 16.0419 11.154C15.9237 11.1242 15.7998 11.1255 15.6823 11.1579C15.5648 11.1903 15.4577 11.2526 15.3713 11.3387L15.1743 11.5443C15.085 11.6376 15.0221 11.753 14.9918 11.8787C14.9615 12.0043 14.965 12.1358 15.0019 12.2596C15.2234 13.0026 15.2234 13.7942 15.0019 14.5372C14.7644 15.3125 14.3064 16.0016 13.6838 16.52C13.0612 17.0385 12.3011 17.3638 11.4968 17.4561C10.8796 17.5303 10.2537 17.4631 9.66621 17.2595C9.07876 17.056 8.54514 16.7215 8.1056 16.2812C7.66607 15.841 7.33211 15.3065 7.12892 14.7181C6.92573 14.1297 6.85863 13.5027 6.93268 12.8845C7.02678 12.1163 7.33336 11.3898 7.81782 10.7868C8.30228 10.1839 8.94533 9.72857 9.67441 9.47226Z" fill="white"/>
<path d="M17.7271 8.96248C17.611 9.08773 17.5368 9.2461 17.5147 9.41556C17.4927 9.58502 17.5239 9.75716 17.604 9.90805C18.3403 11.296 18.6108 12.8846 18.3756 14.4385C18.173 15.7921 17.5995 17.0628 16.719 18.1094C15.8385 19.1561 14.6855 19.9376 13.3881 20.3672C12.0907 20.7967 10.6998 20.8575 9.37003 20.5426C8.04024 20.2278 6.82368 19.5497 5.85558 18.5838C4.88749 17.6179 4.2058 16.402 3.88631 15.0713C3.56681 13.7405 3.62202 12.3471 4.04581 11.0459C4.46959 9.74476 5.24534 8.58679 6.28682 7.70077C7.32829 6.81475 8.59468 6.2354 9.9452 6.02713C11.4931 5.78149 13.0788 6.04092 14.4682 6.76713C14.6221 6.84321 14.796 6.86905 14.9653 6.84103C15.1346 6.81301 15.2909 6.73253 15.4122 6.61091C15.5032 6.52045 15.5718 6.4099 15.6125 6.28812C15.6531 6.16635 15.6647 6.03672 15.6464 5.90964C15.628 5.78255 15.5802 5.66154 15.5068 5.55629C15.4333 5.45105 15.3363 5.36449 15.2234 5.30357C13.3112 4.30024 11.1033 4.01633 9 4.5033C6.89671 4.99028 5.03719 6.21591 3.75848 7.95805C2.47977 9.70019 1.86649 11.8436 2.02979 13.9997C2.1931 16.1558 3.12218 18.1819 4.64865 19.7109C6.17511 21.2399 8.19794 22.1705 10.3505 22.3341C12.5031 22.4976 14.6429 21.8833 16.3822 20.6025C18.1215 19.3217 19.3451 17.4591 19.8313 15.3524C20.3174 13.2456 20.034 11.0341 19.0323 9.11871C18.9685 9.00802 18.8799 8.91375 18.7734 8.84338C18.6669 8.77301 18.5455 8.72848 18.4188 8.71331C18.2921 8.69815 18.1636 8.71277 18.0435 8.75603C17.9235 8.79928 17.8151 8.86997 17.7271 8.96248Z" fill="white"/>
</svg>
