<svg width="26" height="26" viewBox="0 0 26 26" fill="none" xmlns="http://www.w3.org/2000/svg">
<path d="M24.8 13.15L22 15.15L23.5 18.35C23.6 18.45 23.6 18.65 23.5 18.75C23.3 18.95 23.2 19.05 23 19.05L19.5 19.35L19.2 22.85C19.2 23.05 19.1 23.15 19 23.25C18.9 23.35 18.7 23.35 18.6 23.25L15.4 21.75L13.4 24.55C13.3 24.65 13.2 24.75 13 24.75C12.9 24.75 12.7 24.65 12.6 24.55L10.6 21.75L7.4 23.25C7.3 23.35 7.1 23.35 7 23.25C6.9 23.15 6.8 23.05 6.8 22.85L6.5 19.35L2.9 19.05C2.7 19.05 2.6 18.95 2.5 18.85C2.4 18.75 2.4 18.55 2.5 18.45L4 15.25L1.2 13.25C1.1 13.15 1 13.05 1 12.85C1 12.65 1.1 12.55 1.2 12.45L4 10.45L2.5 7.25C2.4 7.15 2.4 6.95 2.5 6.85C2.6 6.75 2.7 6.65 2.9 6.65L6.4 6.35L6.7 2.85C6.7 2.65 6.8 2.55 6.9 2.45C7 2.35 7.2 2.35 7.3 2.45L10.5 3.95L12.5 1.15C12.7 0.95 13.1 0.95 13.3 1.15L15.3 3.95L18.5 2.45C18.6 2.35 18.8 2.35 18.9 2.45C19.1 2.45 19.2 2.55 19.2 2.75L19.5 6.25L23 6.55C23.2 6.55 23.3 6.65 23.4 6.75C23.5 6.85 23.5 7.05 23.4 7.15L21.9 10.35L24.7 12.35C24.8 12.45 24.9 12.55 24.9 12.75C25 12.95 24.9 13.05 24.8 13.15Z" stroke="#CC9E40" stroke-width="1.5" stroke-miterlimit="10" stroke-linecap="round" stroke-linejoin="round"/>
<path d="M10.9002 17.3499C10.7002 17.3499 10.5002 17.2499 10.3002 17.1499L8.3002 15.1499C8.2002 14.8499 8.2002 14.6499 8.2002 14.4499C8.2002 14.2499 8.3002 14.0499 8.4002 13.9499C8.7002 13.6499 9.2002 13.6499 9.5002 13.9499L10.9002 15.4499L15.0002 10.9499C15.3002 10.6499 15.8002 10.6499 16.0002 10.9499C16.3002 11.2499 16.3002 11.7499 16.1002 12.0499L11.4002 17.0499C11.3002 17.2499 11.1002 17.3499 10.9002 17.3499ZM17.6002 9.9499C17.4002 9.9499 17.2002 9.8499 17.1002 9.7499C16.9002 9.6499 16.8002 9.4499 16.8002 9.2499C16.8002 9.0499 16.9002 8.8499 17.0002 8.7499C17.3002 8.4499 17.8002 8.4499 18.1002 8.7499C18.3002 8.8499 18.3002 9.0499 18.3002 9.2499C18.3002 9.4499 18.2002 9.6499 18.1002 9.7499C18.0002 9.8499 17.8002 9.9499 17.6002 9.9499Z" fill="#CC9E40"/>
</svg>
