<svg width="15" height="15" viewBox="0 0 15 15" fill="none" xmlns="http://www.w3.org/2000/svg">
<g clip-path="url(#clip0)">
<path d="M14.7 0.199976C14.4 -0.100024 13.9 -0.100024 13.6 0.199976L7.39998 6.39998L1.29998 0.199976C0.999975 -0.100024 0.499976 -0.100024 0.199976 0.199976C-0.100024 0.499976 -0.100024 0.999975 0.199976 1.29998L6.39998 7.49998L0.199976 13.7C-0.100024 14 -0.100024 14.5 0.199976 14.8C0.299976 14.9 0.499976 15 0.699976 15C0.899976 15 1.09998 14.9 1.19998 14.8L14.7 1.29998C15 0.999975 15 0.499976 14.7 0.199976Z" fill="#434345"/>
<path d="M13.6 13.6C13.3 13.9 13.3 14.4 13.6 14.7C13.7 14.8 13.9 14.9 14.1 14.9C14.3 14.9 14.5 14.8 14.6 14.7C14.9 14.4 14.9 13.9 14.6 13.6C14.4 13.3 13.9 13.3 13.6 13.6Z" fill="#434345"/>
<path d="M9.70002 8.6C9.40002 8.3 8.90003 8.3 8.60003 8.6C8.50003 8.8 8.40002 9 8.40002 9.2C8.40002 9.4 8.50003 9.6 8.60003 9.7L11.4 12.5C11.5 12.6 11.7 12.7 11.9 12.7C12.1 12.7 12.3 12.6 12.4 12.5C12.5 12.4 12.6 12.2 12.6 12C12.6 11.8 12.5 11.6 12.4 11.5L9.70002 8.6Z" fill="#434345"/>
</g>
<defs>
<clipPath id="clip0">
<rect width="14.9" height="14.9" fill="white"/>
</clipPath>
</defs>
</svg>
