<svg width="18" height="15" viewBox="0 0 18 15" fill="none" xmlns="http://www.w3.org/2000/svg">
<path d="M17.575 6.725C16.875 5.025 15.675 3.625 14.275 2.625L15.575 1.325C15.875 1.025 15.875 0.525 15.575 0.225C15.275 -0.075 14.775 -0.075 14.475 0.225L12.975 1.725C11.675 1.125 10.275 0.725 8.775 0.725C4.975 0.725 1.475 3.125 0.075 6.725C-0.025 6.825 -0.025 7.025 0.075 7.225C0.775 8.925 1.975 10.325 3.375 11.325L1.975 12.725C1.675 13.025 1.675 13.525 1.975 13.825C2.075 13.925 2.275 14.025 2.475 14.025C2.675 14.025 2.875 13.925 2.975 13.825L4.575 12.225C5.875 12.825 7.275 13.225 8.775 13.225C12.675 13.225 16.075 10.925 17.575 7.325C17.675 7.025 17.675 6.825 17.575 6.725ZM1.575 6.925C2.875 4.025 5.675 2.225 8.875 2.225C9.975 2.225 10.975 2.425 11.875 2.825L11.275 3.425C10.575 2.925 9.775 2.625 8.875 2.625C6.475 2.725 4.575 4.625 4.575 6.925C4.575 7.825 4.875 8.625 5.375 9.325L4.475 10.225C3.175 9.525 2.175 8.325 1.575 6.925ZM11.575 6.925C11.575 8.425 10.375 9.725 8.775 9.725C8.275 9.725 7.875 9.625 7.475 9.325L11.175 5.625C11.375 6.025 11.575 6.525 11.575 6.925ZM6.075 6.925C6.075 5.425 7.275 4.125 8.875 4.125C9.375 4.125 9.775 4.225 10.175 4.525L6.375 8.325C6.175 7.925 6.075 7.425 6.075 6.925ZM8.775 11.625C7.675 11.625 6.675 11.425 5.775 11.025L6.375 10.425C7.075 10.925 7.875 11.225 8.775 11.225C11.075 11.225 13.075 9.325 13.075 6.925C13.075 6.025 12.775 5.225 12.275 4.525L13.175 3.625C14.375 4.425 15.375 5.625 15.975 6.925C14.775 9.825 11.975 11.625 8.775 11.625Z" fill="#434345"/>
</svg>
