<svg width="372" height="96" viewBox="0 0 372 96" fill="none" xmlns="http://www.w3.org/2000/svg">
<path d="M17.6509 89.2V16.7H354.449V89.2" stroke="#EBEBEC" stroke-miterlimit="10" stroke-linecap="round" stroke-linejoin="round"/>
<path d="M21.6414 89.2V20.7H350.359V89.2" stroke="#EBEBEC" stroke-miterlimit="10" stroke-linecap="round" stroke-linejoin="round"/>
<path d="M25.6318 89.2V24.7H346.368V89.2" stroke="#EBEBEC" stroke-miterlimit="10" stroke-linecap="round" stroke-linejoin="round"/>
<path d="M29.722 89.2V28.8H342.378V89.1" stroke="#EBEBEC" stroke-miterlimit="10" stroke-linecap="round" stroke-linejoin="round"/>
<path d="M1.48926 95.2V7.6C1.48926 3.7 4.68166 0.5 8.57239 0.5H363.527C367.418 0.5 370.61 3.7 370.61 7.6V95.3" stroke="#EBEBEC" stroke-miterlimit="10" stroke-linecap="round" stroke-linejoin="round"/>
<path d="M5.57959 91.2V7.59998C5.57959 5.89998 6.97626 4.59998 8.57246 4.59998H363.527C365.223 4.59998 366.52 5.99998 366.52 7.59998V91.3" stroke="#EBEBEC" stroke-miterlimit="10" stroke-linecap="round" stroke-linejoin="round"/>
<path d="M9.57007 89.2V8.59998H362.43V89.2" stroke="#EBEBEC" stroke-miterlimit="10" stroke-linecap="round" stroke-linejoin="round"/>
<path d="M13.5605 89.2V12.6H358.439V89.2" stroke="#EBEBEC" stroke-miterlimit="10" stroke-linecap="round" stroke-linejoin="round"/>
<path d="M33.7126 89.1V32.8H338.287V89.1" stroke="#EBEBEC" stroke-miterlimit="10" stroke-linecap="round" stroke-linejoin="round"/>
<path d="M37.7031 89.1V36.8H334.297V89.2" stroke="#EBEBEC" stroke-miterlimit="10" stroke-linecap="round" stroke-linejoin="round"/>
<path d="M41.7933 89.2V40.9H330.306V89.2" stroke="#EBEBEC" stroke-miterlimit="10" stroke-linecap="round" stroke-linejoin="round"/>
<path d="M45.7838 89.2V44.9H326.216V89.2" stroke="#EBEBEC" stroke-miterlimit="10" stroke-linecap="round" stroke-linejoin="round"/>
<path d="M49.7743 89V48.9H322.226V89.2" stroke="#EBEBEC" stroke-miterlimit="10" stroke-linecap="round" stroke-linejoin="round"/>
<path d="M53.8646 89.2V53H318.235V89.2" stroke="#EBEBEC" stroke-miterlimit="10" stroke-linecap="round" stroke-linejoin="round"/>
<path d="M57.8551 89.1V57H314.245V89.2" stroke="#EBEBEC" stroke-miterlimit="10" stroke-linecap="round" stroke-linejoin="round"/>
<path d="M61.8456 89.2V61H178.468H194.53H310.154V89.2" stroke="#EBEBEC" stroke-miterlimit="10" stroke-linecap="round" stroke-linejoin="round"/>
<path d="M65.8361 89V65H175.076H197.323H306.164V89.2" stroke="#EBEBEC" stroke-miterlimit="10" stroke-linecap="round" stroke-linejoin="round"/>
<path d="M69.9264 89V69.1H155.124H217.375H302.173V89.2" stroke="#EBEBEC" stroke-miterlimit="10" stroke-linecap="round" stroke-linejoin="round"/>
<path d="M73.9169 89.2V73.1H139.062H233.437H298.083V89.1" stroke="#EBEBEC" stroke-miterlimit="10" stroke-linecap="round" stroke-linejoin="round"/>
<path d="M77.9073 89.2V77.1H126.691H245.708H294.093V89.1" stroke="#EBEBEC" stroke-miterlimit="10" stroke-linecap="round" stroke-linejoin="round"/>
<path d="M81.9976 89.2V81.2H116.815H255.684H290.102V89.2" stroke="#EBEBEC" stroke-miterlimit="10" stroke-linecap="round" stroke-linejoin="round"/>
<path d="M85.9882 89.2V85.2H108.534H264.164H286.012V89.1" stroke="#EBEBEC" stroke-miterlimit="10" stroke-linecap="round" stroke-linejoin="round"/>
<path d="M89.9786 89.2H100.853H271.546H282.021" stroke="#EBEBEC" stroke-miterlimit="10" stroke-linecap="round" stroke-linejoin="round"/>
</svg>
