<svg width="372" height="98" viewBox="0 0 372 98" fill="none" xmlns="http://www.w3.org/2000/svg">
<path d="M17.6509 8.20001V80.8H354.449V8.20001" stroke="#EBEBEC" stroke-miterlimit="10" stroke-linecap="round" stroke-linejoin="round"/>
<path d="M21.6414 8.20001V76.8H350.359V8.20001" stroke="#EBEBEC" stroke-miterlimit="10" stroke-linecap="round" stroke-linejoin="round"/>
<path d="M25.6318 8.20001V72.7H346.368V8.20001" stroke="#EBEBEC" stroke-miterlimit="10" stroke-linecap="round" stroke-linejoin="round"/>
<path d="M29.722 8.20001V68.7H342.378V8.39999" stroke="#EBEBEC" stroke-miterlimit="10" stroke-linecap="round" stroke-linejoin="round"/>
<path d="M1.48926 1.20001V89.9C1.48926 93.8 4.68166 97 8.57239 97H363.527C367.418 97 370.61 93.8 370.61 89.9V1.20001" stroke="#EBEBEC" stroke-miterlimit="10" stroke-linecap="round" stroke-linejoin="round"/>
<path d="M5.57959 6.20001V89.9C5.57959 91.6 6.97626 92.9 8.57246 92.9H363.527C365.223 92.9 366.52 91.5 366.52 89.9V6.20001" stroke="#EBEBEC" stroke-miterlimit="10" stroke-linecap="round" stroke-linejoin="round"/>
<path d="M9.57007 8.20001V88.9H362.43V8.20001" stroke="#EBEBEC" stroke-miterlimit="10" stroke-linecap="round" stroke-linejoin="round"/>
<path d="M13.5605 8.20001V84.8H358.439V8.20001" stroke="#EBEBEC" stroke-miterlimit="10" stroke-linecap="round" stroke-linejoin="round"/>
<path d="M33.7126 8.40002V64.7H338.287V8.40002" stroke="#EBEBEC" stroke-miterlimit="10" stroke-linecap="round" stroke-linejoin="round"/>
<path d="M37.7031 8.39999V60.6H334.297V8.20001" stroke="#EBEBEC" stroke-miterlimit="10" stroke-linecap="round" stroke-linejoin="round"/>
<path d="M41.7933 8.20001V56.6H330.306V8.20001" stroke="#EBEBEC" stroke-miterlimit="10" stroke-linecap="round" stroke-linejoin="round"/>
<path d="M45.7838 8.20001V52.6H326.216V8.20001" stroke="#EBEBEC" stroke-miterlimit="10" stroke-linecap="round" stroke-linejoin="round"/>
<path d="M49.7743 8.39999V48.5H322.226V8.20001" stroke="#EBEBEC" stroke-miterlimit="10" stroke-linecap="round" stroke-linejoin="round"/>
<path d="M53.8646 8.20001V44.5H318.235V8.20001" stroke="#EBEBEC" stroke-miterlimit="10" stroke-linecap="round" stroke-linejoin="round"/>
<path d="M57.8551 8.39999V40.5H314.245V8.20001" stroke="#EBEBEC" stroke-miterlimit="10" stroke-linecap="round" stroke-linejoin="round"/>
<path d="M61.8456 8.20001V36.5H178.468H194.53H310.154V8.20001" stroke="#EBEBEC" stroke-miterlimit="10" stroke-linecap="round" stroke-linejoin="round"/>
<path d="M65.8361 8.39999V32.4H175.076H197.323H306.164V8.20001" stroke="#EBEBEC" stroke-miterlimit="10" stroke-linecap="round" stroke-linejoin="round"/>
<path d="M69.9264 8.39999V28.4H155.124H217.375H302.173V8.20001" stroke="#EBEBEC" stroke-miterlimit="10" stroke-linecap="round" stroke-linejoin="round"/>
<path d="M73.9169 8.20001V24.4H139.062H233.437H298.083V8.39999" stroke="#EBEBEC" stroke-miterlimit="10" stroke-linecap="round" stroke-linejoin="round"/>
<path d="M77.9073 8.20001V20.3H126.691H245.708H294.093V8.39999" stroke="#EBEBEC" stroke-miterlimit="10" stroke-linecap="round" stroke-linejoin="round"/>
<path d="M81.9976 8.20001V16.3H116.815H255.684H290.102V8.20001" stroke="#EBEBEC" stroke-miterlimit="10" stroke-linecap="round" stroke-linejoin="round"/>
<path d="M85.9882 8.20001V12.3H108.534H264.164H286.012V8.29999" stroke="#EBEBEC" stroke-miterlimit="10" stroke-linecap="round" stroke-linejoin="round"/>
<path d="M89.9786 8.20001H100.853H271.546H282.021" stroke="#EBEBEC" stroke-miterlimit="10" stroke-linecap="round" stroke-linejoin="round"/>
</svg>
