<svg width="18" height="13" viewBox="0 0 18 13" fill="none" xmlns="http://www.w3.org/2000/svg">
<path d="M17.575 5.9C16.075 2.3 12.675 0 8.775 0C4.975 0 1.475 2.3 0.075 5.9C-0.025 6.1 -0.025 6.3 0.075 6.5C1.575 10.1 4.975 12.4 8.875 12.4C12.775 12.4 16.175 10.1 17.675 6.5C17.675 6.3 17.675 6.1 17.575 5.9ZM8.775 10.9C5.675 10.9 2.775 9.1 1.475 6.2C2.775 3.3 5.575 1.5 8.775 1.5C11.975 1.5 14.775 3.3 16.075 6.2C14.775 9 11.975 10.9 8.775 10.9Z" fill="#434345"/>
<path d="M8.7751 1.90002C6.4751 1.90002 4.4751 3.80002 4.4751 6.20002C4.4751 8.60002 6.3751 10.5 8.7751 10.5C11.1751 10.5 13.0751 8.60002 13.0751 6.20002C13.0751 3.80002 11.1751 1.90002 8.7751 1.90002ZM8.7751 8.90002C7.2751 8.90002 5.9751 7.70002 5.9751 6.10002C5.9751 4.50002 7.1751 3.30002 8.7751 3.30002C10.3751 3.30002 11.5751 4.50002 11.5751 6.10002C11.5751 7.70002 10.2751 8.90002 8.7751 8.90002Z" fill="#434345"/>
</svg>
