<svg width="12" height="20" viewBox="0 0 12 20" fill="none" xmlns="http://www.w3.org/2000/svg">
<path d="M8.79997 4.40005H10.8C11.0208 4.40005 11.2 4.22085 11.2 4.00005V1.30525C11.2 1.09565 11.0388 0.921249 10.83 0.906449C10.1936 0.861249 8.95037 0.800049 8.05637 0.800049C5.59997 0.800049 3.99997 2.27205 3.99997 4.94725V7.60005H1.19997C0.979173 7.60005 0.799973 7.77925 0.799973 8.00005V10.8C0.799973 11.0208 0.979173 11.2 1.19997 11.2H3.99997V18.8C3.99997 19.0208 4.17917 19.2 4.39997 19.2H7.19997C7.42077 19.2 7.59997 19.0208 7.59997 18.8V11.2H10.4888C10.6928 11.2 10.864 11.0468 10.8864 10.844L11.1976 8.04405C11.224 7.80725 11.0384 7.60005 10.8 7.60005H7.59997V5.60005C7.59997 4.93725 8.13717 4.40005 8.79997 4.40005Z" fill="white"/>
</svg>
