<svg width="20" height="20" viewBox="0 0 20 20" fill="none" xmlns="http://www.w3.org/2000/svg">
<path d="M12.8 4.39999H14.8C15.0208 4.39999 15.2 4.22079 15.2 3.99999V1.30519C15.2 1.09559 15.0388 0.921188 14.83 0.906388C14.1936 0.861188 12.9504 0.799988 12.0564 0.799988C9.59999 0.799988 7.99999 2.27199 7.99999 4.94719V7.59999H5.19999C4.97919 7.59999 4.79999 7.77919 4.79999 7.99999V10.8C4.79999 11.0208 4.97919 11.2 5.19999 11.2H7.99999V18.8C7.99999 19.0208 8.17919 19.2 8.39999 19.2H11.2C11.4208 19.2 11.6 19.0208 11.6 18.8V11.2H14.4888C14.6928 11.2 14.864 11.0468 14.8864 10.844L15.1976 8.04399C15.224 7.80719 15.0384 7.59999 14.8 7.59999H11.6V5.59999C11.6 4.93719 12.1372 4.39999 12.8 4.39999Z" fill="#3B5998"/>
</svg>
