<svg width="16" height="18.4" viewBox="0 0 12 20" fill="none" xmlns="http://www.w3.org/2000/svg">
<path d="M8.79993 4.39999H10.7999C11.0207 4.39999 11.1999 4.22079 11.1999 3.99999V1.30519C11.1999 1.09559 11.0387 0.921188 10.8299 0.906388C10.1935 0.861188 8.95033 0.799988 8.05633 0.799988C5.59993 0.799988 3.99993 2.27199 3.99993 4.94719V7.59999H1.19993C0.979127 7.59999 0.799927 7.77919 0.799927 7.99999V10.8C0.799927 11.0208 0.979127 11.2 1.19993 11.2H3.99993V18.8C3.99993 19.0208 4.17913 19.2 4.39993 19.2H7.19993C7.42073 19.2 7.59993 19.0208 7.59993 18.8V11.2H10.4887C10.6927 11.2 10.8639 11.0468 10.8863 10.844L11.1975 8.04399C11.2239 7.80719 11.0383 7.59999 10.7999 7.59999H7.59993V5.59999C7.59993 4.93719 8.13713 4.39999 8.79993 4.39999Z" fill="white"/>
</svg>
