<svg width="39" height="30" viewBox="0 0 39 30" fill="none" xmlns="http://www.w3.org/2000/svg">
<path fill-rule="evenodd" clip-rule="evenodd" d="M32.0001 5.5C32.0001 7.98528 29.9854 10 27.5001 10C25.0148 10 23.0001 7.98528 23.0001 5.5C23.0001 3.01472 25.0148 1 27.5001 1C29.9854 1 32.0001 3.01472 32.0001 5.5ZM33.0001 5.5C33.0001 8.53757 30.5376 11 27.5001 11C24.4625 11 22.0001 8.53757 22.0001 5.5C22.0001 2.46243 24.4625 0 27.5001 0C30.5376 0 33.0001 2.46243 33.0001 5.5ZM23.748 23C23.4978 22.6523 23.2295 22.3185 22.9445 22H37.9507C37.449 16.9467 33.1854 13 28.0001 13H27.0001C23.026 13 19.5934 15.3182 17.9807 18.676C17.6642 18.5647 17.3417 18.4664 17.0137 18.3816C18.7592 14.6136 22.5744 12 27.0001 12H28.0001C33.7381 12 38.45 16.3935 38.9552 22C38.9849 22.3294 39.0001 22.6629 39.0001 23H38.0001H23.748ZM13 15C15.7614 15 18 12.7614 18 10C18 7.23858 15.7614 5 13 5C10.2386 5 8 7.23858 8 10C8 12.7614 10.2386 15 13 15ZM13 16C16.3137 16 19 13.3137 19 10C19 6.68629 16.3137 4 13 4C9.68629 4 7 6.68629 7 10C7 13.3137 9.68629 16 13 16ZM12 19C6.26196 19 1.55007 23.3935 1.04484 29H24.9552C24.4499 23.3935 19.738 19 14 19H12ZM25.9589 29C25.4508 22.8405 20.2907 18 14 18H12C5.70934 18 0.549225 22.8405 0.0410738 29C0.0138713 29.3297 0 29.6632 0 30H1H25H26C26 29.6632 25.9861 29.3297 25.9589 29Z" fill="#BDBDBD"/>
</svg>
