<svg width="35" height="26" viewBox="0 0 35 26" fill="none" xmlns="http://www.w3.org/2000/svg">
<g clip-path="url(#clip0)">
<path d="M33.3998 15.6C33.3998 15.3 33.1998 15 32.8998 14.9C31.3998 14.3 29.8998 13.5 28.3998 12.8C26.7998 12.1 25.0998 2.79999 25.0998 2.79999C25.0998 2.79999 23.2998 12.1 21.5998 12.8C20.0998 13.4 18.5998 14.2 17.2998 14.8C16.9998 14.9 16.7998 15.2 16.7998 15.5C16.7998 18.3 19.0998 20.6 21.8998 20.6H28.3998C31.0998 20.8 33.3998 18.5 33.3998 15.6Z" fill="white" stroke="#D0D0D0" stroke-width="1.5" stroke-miterlimit="10" stroke-linecap="round" stroke-linejoin="round"/>
<path d="M29.4994 6.79996C29.3994 6.79996 29.2994 6.79996 29.1994 6.79996C29.1994 3.79996 27.2994 1.89996 24.9994 1.89996C22.6994 1.89996 20.7994 3.79996 20.7994 6.79996C20.6994 6.79996 20.5994 6.79996 20.4994 6.79996C20.0994 6.99996 19.9994 7.69996 20.2994 8.39996C20.5994 9.09996 20.9994 9.49996 21.3994 9.49996C21.5994 9.99996 21.7994 10.4 22.0994 10.7C22.7994 11.6 23.8994 12.6 24.9994 12.6C25.9994 12.6 26.8994 11.6 27.8994 10.7C28.1994 10.4 28.4994 9.89996 28.6994 9.39996C29.0994 9.39996 29.4994 8.89996 29.6994 8.29996C29.9994 7.69996 29.8994 6.99996 29.4994 6.79996Z" fill="white" stroke="#D0D0D0" stroke-width="1.5" stroke-miterlimit="10" stroke-linecap="round" stroke-linejoin="round"/>
<path d="M21.5002 17.9C21.5002 17.5 21.3002 17.1 20.9002 17C19.0002 16.2 17.1002 15.2 15.3002 14.4C13.3002 13.6 11.1002 2 11.1002 2C11.1002 2 8.9002 13.6 6.8002 14.5C4.9002 15.3 3.0002 16.2 1.3002 17C0.900195 17.2 0.700195 17.5 0.700195 17.9C0.700195 21.4 3.5002 24.3 7.0002 24.3H15.1002C18.7002 24.3 21.5002 21.4 21.5002 17.9Z" fill="white" stroke="#D0D0D0" stroke-width="1.5" stroke-miterlimit="10" stroke-linecap="round" stroke-linejoin="round"/>
<path d="M11.1 21.7H7.8C6.5 21.7 5.4 21.2 4.5 20.3C3.9 19.7 3.5 19.1 3.3 18.3C3.3 18.3 3.1 17.6 3 16" stroke="#D0D0D0" stroke-miterlimit="10" stroke-linecap="round" stroke-linejoin="round" stroke-dasharray="2 2"/>
<path d="M16.7005 6.89999C16.6005 6.89999 16.5005 6.89999 16.3005 6.89999C16.3005 3.09999 14.0005 0.799988 11.1005 0.799988C8.20053 0.799988 5.90053 3.19999 5.90053 6.89999C5.80053 6.89999 5.60053 6.79999 5.50053 6.89999C5.00053 7.09999 4.90053 7.99999 5.30053 8.89999C5.60053 9.69999 6.20053 10.3 6.70053 10.2C6.90053 10.8 7.30053 11.3 7.60053 11.7C8.50053 12.9 9.90053 14.1 11.2005 14.1C12.4005 14.1 13.6005 12.9 14.8005 11.7C15.2005 11.3 15.5005 10.7 15.8005 10.1C16.3005 9.99999 16.8005 9.49999 17.1005 8.79999C17.3005 7.99999 17.2005 7.09999 16.7005 6.89999Z" fill="white" stroke="#D0D0D0" stroke-width="1.5" stroke-miterlimit="10" stroke-linecap="round" stroke-linejoin="round"/>
<path d="M30.7 14C30.7 15 30.5 15.5 30.5 15.5C30.4 16 30.1 16.4 29.7 16.8C29.1 17.4 28.4 17.7 27.6 17.7H25.5" stroke="#D0D0D0" stroke-miterlimit="10" stroke-linecap="round" stroke-linejoin="round" stroke-dasharray="3 3"/>
</g>
<defs>
<clipPath id="clip0">
<rect width="34.1" height="25.1" fill="white"/>
</clipPath>
</defs>
</svg>
