<svg width="35" height="26" viewBox="0 0 35 26" fill="none" xmlns="http://www.w3.org/2000/svg">
<g clip-path="url(#clip0)">
<path d="M33.4003 15.6C33.4003 15.3 33.2003 15 32.9003 14.9C31.4003 14.3 29.9003 13.5 28.4003 12.8C26.8003 12.1 25.1003 2.80005 25.1003 2.80005C25.1003 2.80005 23.3003 12.1 21.6003 12.8C20.1003 13.4 18.6003 14.2 17.3003 14.8C17.0003 14.9 16.8003 15.2 16.8003 15.5C16.8003 18.3 19.1003 20.6 21.9003 20.6H28.4003C31.1003 20.8001 33.4003 18.5 33.4003 15.6Z" fill="white" stroke="#414042" stroke-width="1.5" stroke-miterlimit="10" stroke-linecap="round" stroke-linejoin="round"/>
<path d="M29.5004 6.80015C29.4004 6.80015 29.3004 6.80015 29.2004 6.80015C29.2004 3.80015 27.3004 1.90015 25.0004 1.90015C22.7004 1.90015 20.8004 3.80015 20.8004 6.80015C20.7004 6.80015 20.6004 6.80015 20.5004 6.80015C20.1004 7.00015 20.0004 7.70015 20.3004 8.40015C20.6004 9.10015 21.0004 9.50015 21.4004 9.50015C21.6004 10.0001 21.8004 10.4001 22.1004 10.7001C22.8004 11.6001 23.9004 12.6001 25.0004 12.6001C26.0004 12.6001 26.9004 11.6001 27.9004 10.7001C28.2004 10.4001 28.5004 9.90015 28.7004 9.40015C29.1004 9.40015 29.5004 8.90015 29.7004 8.30015C30.0004 7.70015 29.9004 7.00015 29.5004 6.80015Z" fill="white" stroke="#414042" stroke-width="1.5" stroke-miterlimit="10" stroke-linecap="round" stroke-linejoin="round"/>
<path d="M21.5002 17.9C21.5002 17.5 21.3002 17.1 20.9002 17C19.0002 16.2 17.1002 15.2 15.3002 14.4C13.3002 13.6 11.1002 2 11.1002 2C11.1002 2 8.9002 13.6 6.8002 14.5C4.9002 15.3 3.0002 16.2 1.3002 17C0.900195 17.2 0.700195 17.5 0.700195 17.9C0.700195 21.4 3.5002 24.3 7.0002 24.3H15.1002C18.7002 24.3 21.5002 21.4 21.5002 17.9Z" fill="white" stroke="#414042" stroke-width="1.5" stroke-miterlimit="10" stroke-linecap="round" stroke-linejoin="round"/>
<path d="M11.1 21.7H7.8C6.5 21.7 5.4 21.2 4.5 20.3C3.9 19.7 3.5 19.1 3.3 18.3C3.3 18.3 3.1 17.6 3 16" stroke="#414042" stroke-miterlimit="10" stroke-linecap="round" stroke-linejoin="round" stroke-dasharray="2 2"/>
<path d="M16.7 6.90005C16.6 6.90005 16.5 6.90005 16.3 6.90005C16.3 3.10005 14 0.800049 11.1 0.800049C8.20004 0.800049 5.90004 3.20005 5.90004 6.90005C5.80004 6.90005 5.60004 6.80005 5.50004 6.90005C5.00004 7.10005 4.90004 8.00005 5.30004 8.90005C5.60004 9.70005 6.20004 10.3 6.70004 10.2C6.90004 10.8 7.30004 11.3 7.60004 11.7C8.50004 12.9 9.90004 14.1 11.2 14.1C12.4 14.1 13.6 12.9 14.8 11.7C15.2 11.3 15.5 10.7 15.8 10.1C16.3 10 16.8 9.50005 17.1 8.80005C17.3 8.00005 17.2 7.10005 16.7 6.90005Z" fill="white" stroke="#414042" stroke-width="1.5" stroke-miterlimit="10" stroke-linecap="round" stroke-linejoin="round"/>
<path d="M30.7 14C30.7 15 30.5 15.5 30.5 15.5C30.4 16 30.1 16.4 29.7 16.8C29.1 17.4 28.4 17.7 27.6 17.7H25.5" stroke="#414042" stroke-miterlimit="10" stroke-linecap="round" stroke-linejoin="round" stroke-dasharray="3 3"/>
</g>
<defs>
<clipPath id="clip0">
<rect width="34.1" height="25.1" fill="white"/>
</clipPath>
</defs>
</svg>
