<svg width="13" height="16" viewBox="0 0 13 16" fill="none" xmlns="http://www.w3.org/2000/svg">
<path d="M6.5 1C3.5 1 1 3.4 1 6.5C1 11.6 6 14.4 6.2 14.6C6.3 14.7 6.4 14.7 6.4 14.7C6.5 14.7 6.6 14.7 6.7 14.6C6.9 14.4 11.9 11.4 11.9 6.5C12 3.4 9.5 1 6.5 1Z" stroke="#BDBDBD" stroke-width="1.5" stroke-miterlimit="10" stroke-linecap="round" stroke-linejoin="round"/>
<path d="M6.49999 3.70001C7.89999 3.70001 9.09999 4.90001 9.09999 6.30001C9.09999 7.60001 8.19999 8.50001 6.49999 10.1C5.19999 8.90001 3.89999 8.00001 3.89999 6.30001C3.89999 4.90001 5.09999 3.70001 6.49999 3.70001Z" stroke="#BDBDBD" stroke-width="1.5" stroke-miterlimit="10" stroke-linecap="round" stroke-linejoin="round"/>
</svg>
