<svg width="75" height="27" viewBox="0 0 75 27" fill="none" xmlns="http://www.w3.org/2000/svg">
<path d="M30.5077 1.32031V26.5599H45.4531L47.6176 22.2433H34.8367V1.32031H30.5077Z" fill="#434345"/>
<path d="M4.43208 1.32031H0V26.5599H4.43208V1.32031Z" fill="#434345"/>
<path d="M16.6629 1.32031C11.4063 1.32031 7.12878 5.53537 7.12878 10.7153C7.12878 14.5749 9.4479 17.8759 12.8493 19.2978C12.9008 19.2978 7.54107 26.5599 7.54107 26.5599H12.8493L17.6936 20.0596H19.7551L21.868 15.8445H16.8175C13.88 15.8445 11.4578 13.4577 11.4578 10.563C11.4578 7.92221 13.88 5.53537 16.8175 5.53537H22.6411V26.5091H26.9185V1.32031H16.6629Z" fill="#434345"/>
<path d="M61.4463 9.34423L67.9913 22.1926H63.3531H54.9012L61.4463 9.34423ZM61.4463 0L47.8923 26.6107H63.4562H75.0002L61.4463 0Z" fill="#CC9E40"/>
</svg>
