<svg width="19" height="19" viewBox="0 0 19 19" fill="none" xmlns="http://www.w3.org/2000/svg">
<path d="M9.4 18.8C9 18.8 8.7 18.6 8.5 18.3L7.4 16.8L5.7 17.6C5.3 17.7 5 17.7 4.7 17.5C4.4 17.3 4.2 17 4.2 16.7L4 14.8L2.1 14.6C1.7 14.5 1.4 14.3 1.2 14.1C1 13.8 1 13.4 1.1 13.1L2 11.4L0.5 10.3C0.2 10.1 0 9.7 0 9.4C0 9 0.2 8.7 0.5 8.5L2 7.5L1.2 5.7C1 5.4 1.1 5 1.2 4.7C1.4 4.4 1.7 4.2 2 4.2L4 4L4.2 2.1C4.3 1.7 4.5 1.4 4.7 1.2C5 1 5.4 1 5.7 1.1L7.4 2L8.5 0.5C8.7 0.2 9 0 9.4 0C9.8 0 10.1 0.1 10.3 0.4L11.4 2L13.1 1.2C13.5 1.1 13.8 1.1 14.1 1.3C14.4 1.5 14.6 1.8 14.6 2.1L14.8 4L16.7 4.2C17.1 4.3 17.4 4.5 17.6 4.7C17.8 5 17.8 5.4 17.7 5.7L16.9 7.5L18.4 8.6C18.7 8.8 18.9 9.1 18.9 9.5C18.9 9.8 18.8 10.1 18.6 10.3L18.5 10.4L17 11.5L17.8 13.2C17.9 13.6 17.9 13.9 17.7 14.2C17.5 14.5 17.2 14.7 16.9 14.7L15 14.9L14.8 16.8C14.7 17.2 14.5 17.5 14.3 17.7C14 17.9 13.6 17.9 13.3 17.8L11.5 17L10.4 18.5C10.1 18.7 9.8 18.8 9.4 18.8ZM7.7 15.1C7.9 15.1 8.2 15.2 8.3 15.4L9.4 17L10.5 15.4C10.7 15.1 11.1 15 11.4 15.2L13.2 16L13.4 14C13.4 13.6 13.7 13.3 14.1 13.3L16.1 13.1L15.3 11.3C15.1 11 15.3 10.6 15.5 10.4L17 9.4L15.4 8.3C15.1 8.1 15 7.7 15.2 7.4L16 5.6L14 5.4C13.6 5.4 13.3 5.1 13.3 4.7L13.1 2.7L11.3 3.5C11 3.6 10.6 3.5 10.4 3.3L9.4 1.8L8.3 3.4C8.1 3.7 7.7 3.8 7.4 3.6L5.6 2.8L5.4 4.8C5.4 5.2 5.1 5.5 4.7 5.5L2.7 5.7L3.5 7.5C3.7 7.8 3.5 8.2 3.3 8.4L1.8 9.4L3.4 10.5C3.7 10.7 3.8 11.1 3.6 11.4L2.8 13.2L4.8 13.4C5.2 13.4 5.5 13.7 5.5 14.1L5.7 16.1L7.5 15.3C7.5 15.2 7.6 15.1 7.7 15.1Z" fill="#434345"/>
<path d="M11.4001 7.9999L10.9001 10.4999H11.8001C11.9001 10.4999 12.1001 10.4999 12.2001 10.5999C12.3001 10.6999 12.3001 10.7999 12.3001 10.9999C12.3001 11.0999 12.3001 11.1999 12.2001 11.2999C12.1001 11.3999 12.0001 11.3999 11.8001 11.3999H10.7001L10.4001 13.0999C10.4001 13.1999 10.3001 13.2999 10.2001 13.3999C10.1001 13.4999 10.0001 13.4999 9.9001 13.4999C9.7001 13.4999 9.6001 13.4999 9.5001 13.3999C9.4001 13.2999 9.4001 13.1999 9.4001 12.9999C9.4001 12.8999 9.4001 12.8999 9.4001 12.8999L9.7001 11.3999H8.2001L7.9001 13.0999C7.9001 13.1999 7.8001 13.2999 7.7001 13.3999C7.6001 13.4999 7.5001 13.4999 7.4001 13.4999C7.2001 13.4999 7.1001 13.4999 7.0001 13.3999C6.9001 13.2999 6.9001 13.1999 6.9001 12.9999C6.9001 12.8999 6.9001 12.8999 6.9001 12.8999L7.2001 11.3999H6.6001C6.5001 11.3999 6.3001 11.3999 6.2001 11.2999C6.1001 11.1999 6.1001 11.0999 6.1001 10.8999C6.1001 10.7999 6.1001 10.6999 6.2001 10.5999C6.3001 10.4999 6.4001 10.4999 6.6001 10.4999H7.3001L7.8001 7.9999H6.9001C6.8001 7.9999 6.6001 7.9999 6.5001 7.8999C6.4001 7.6999 6.4001 7.5999 6.4001 7.4999C6.4001 7.3999 6.4001 7.2999 6.5001 7.1999C6.6001 6.9999 6.7001 6.9999 6.9001 6.9999H8.0001L8.3001 5.2999C8.3001 5.1999 8.4001 5.0999 8.5001 4.9999C8.6001 4.9999 8.7001 4.8999 8.8001 4.8999C9.0001 4.8999 9.1001 4.8999 9.2001 4.9999C9.3001 5.0999 9.3001 5.1999 9.3001 5.3999C9.3001 5.4999 9.3001 5.4999 9.3001 5.4999L9.0001 6.9999H10.5001L10.8001 5.2999C10.9001 5.1999 11.0001 5.0999 11.0001 4.9999C11.1001 4.8999 11.2001 4.8999 11.3001 4.8999C11.5001 4.8999 11.6001 4.8999 11.7001 4.9999C11.8001 5.0999 11.8001 5.1999 11.8001 5.3999C11.8001 5.4999 11.8001 5.4999 11.8001 5.4999L11.6001 6.9999H12.1001C12.2001 6.9999 12.4001 6.9999 12.5001 7.0999C12.6001 7.1999 12.6001 7.2999 12.6001 7.4999C12.6001 7.5999 12.6001 7.6999 12.5001 7.7999C12.4001 7.8999 12.2001 7.9999 12.1001 7.9999H11.4001ZM9.9001 10.4999L10.4001 7.9999H8.8001L8.3001 10.4999H9.9001Z" fill="#434345"/>
</svg>
