<svg width="24" height="24" viewBox="0 0 24 24" fill="none" xmlns="http://www.w3.org/2000/svg">
<path d="M23.1427 0H0.857389C0.383993 0 0.000244141 0.383749 0.000244141 0.857145V5.14277C0.000294363 5.38564 0.103401 5.61712 0.28395 5.77964L8.57154 13.2384V23.1425C8.57134 23.6158 8.95489 23.9997 9.42828 24C9.56142 24 9.69275 23.9691 9.81183 23.9096L14.9546 21.3382C15.2452 21.193 15.4287 20.896 15.4286 20.5711V13.2384L23.7162 5.78134C23.8972 5.61847 24.0003 5.3863 23.9999 5.14277V0.857145C23.9998 0.383749 23.6161 0 23.1427 0ZM22.2856 4.76133L13.998 12.2183C13.817 12.3812 13.7139 12.6134 13.7143 12.8569V20.0414L10.2858 21.7556V12.8569C10.2857 12.614 10.1826 12.3826 10.0021 12.2201L1.71448 4.76133V1.71424H22.2856V4.76133Z" fill="black"/>
</svg>
