<svg width="219" height="180" viewBox="0 0 219 180" fill="none" xmlns="http://www.w3.org/2000/svg">
<path d="M169.131 111.479C172.755 111.479 175.693 108.529 175.693 104.89C175.693 101.251 172.755 98.3016 169.131 98.3016C165.507 98.3016 162.57 101.251 162.57 104.89C162.57 108.529 165.507 111.479 169.131 111.479Z" stroke="#EBEBEC" stroke-width="1.5" stroke-miterlimit="10"/>
<path d="M169.131 178.155C172.755 178.155 175.693 175.205 175.693 171.567C175.693 167.928 172.755 164.978 169.131 164.978C165.507 164.978 162.57 167.928 162.57 171.567C162.57 175.205 165.507 178.155 169.131 178.155Z" stroke="#EBEBEC" stroke-width="1.5" stroke-miterlimit="10"/>
<path d="M169.131 15.0219C172.755 15.0219 175.693 12.0721 175.693 8.43331C175.693 4.79453 172.755 1.84473 169.131 1.84473C165.507 1.84473 162.57 4.79453 162.57 8.43331C162.57 12.0721 165.507 15.0219 169.131 15.0219Z" stroke="#EBEBEC" stroke-width="1.5" stroke-miterlimit="10"/>
<path d="M169.131 164.978V111.479" stroke="#EBEBEC" stroke-width="1.5" stroke-miterlimit="10"/>
<path d="M162.57 104.627C138.948 101.464 121.1 81.1714 121.1 56.6619C121.1 32.1524 139.472 11.8595 163.094 8.69702" stroke="#EBEBEC" stroke-width="1.5" stroke-miterlimit="10"/>
<path d="M175.43 8.96045C198.79 12.123 216.9 32.4158 216.9 56.6618C216.9 81.1713 198.79 101.201 175.43 104.363" stroke="#EBEBEC" stroke-width="1.5" stroke-miterlimit="10"/>
<path d="M81.4143 56.9199V131.851H125.137L131.469 119.036H94.0787V56.9199H81.4143Z" fill="#242424"/>
<path d="M12.966 56.9199H0V131.851H12.966V56.9199Z" fill="#242424"/>
<path d="M46.1348 56.9199C30.7565 56.9199 18.2428 69.4336 18.2428 84.8119C18.2428 96.2702 25.0274 106.07 34.978 110.292C35.1288 110.292 19.449 131.851 19.449 131.851H34.978L49.1501 112.553H55.1808L61.3623 100.039H46.5871C37.9933 100.039 30.9073 92.9533 30.9073 84.3595C30.9073 76.5197 37.9933 69.4336 46.5871 69.4336H63.6238V131.7H76.1374V56.9199H46.1348Z" fill="#242424"/>
<path d="M214.843 126.273C215.597 126.273 216.351 126.574 216.954 127.027C217.557 127.63 217.708 128.233 217.708 129.137C217.708 130.042 217.406 130.645 216.954 131.097C216.351 131.7 215.748 131.851 214.843 131.851C213.939 131.851 213.336 131.55 212.733 131.097C212.129 130.494 211.979 129.891 211.979 129.137C211.979 128.384 212.28 127.63 212.733 127.027C213.336 126.424 214.089 126.273 214.843 126.273ZM214.994 131.399C215.748 131.399 216.2 131.248 216.652 130.796C217.105 130.344 217.256 129.891 217.256 129.137C217.256 128.384 217.105 127.931 216.652 127.479C216.2 127.027 215.748 126.876 214.994 126.876C214.24 126.876 213.788 127.027 213.336 127.479C212.883 127.931 212.733 128.534 212.733 129.137C212.733 129.891 212.883 130.344 213.336 130.796C213.637 131.097 214.24 131.399 214.994 131.399ZM214.089 127.63H214.843C215.597 127.63 215.899 127.931 215.899 128.534C215.899 128.987 215.748 129.137 215.446 129.288L216.2 130.494H215.446L214.843 129.439H214.542V130.494H213.939V127.63H214.089ZM214.693 128.082V128.987H214.994C215.296 128.987 215.446 128.836 215.446 128.534C215.446 128.233 215.296 128.082 214.994 128.082H214.693Z" fill="black"/>
<path d="M169.312 80.7412L188.459 118.885H174.89H150.164L169.312 80.7412ZM169.312 53L129.66 132.002H175.191H208.963L169.312 53Z" fill="#CC9E40"/>
<path d="M178.457 149.934C177.735 149.645 177.446 149.789 177.157 150.656C177.157 150.801 177.012 151.09 177.012 151.234C176.579 152.535 176.146 153.69 175.712 155.135C175.568 154.846 175.568 154.846 175.568 154.702C174.99 153.257 174.412 151.812 173.834 150.367C173.689 150.078 173.545 149.789 173.256 149.789C172.678 149.645 172.244 149.934 171.811 150.223C171.377 150.656 171.666 150.945 171.811 151.379C172.678 153.113 173.4 154.991 174.267 156.725C174.701 157.447 174.556 158.17 174.123 158.748C173.689 159.326 173.111 159.615 172.389 159.759C171.955 159.759 171.666 159.903 171.522 160.337C171.377 160.77 171.377 161.204 171.811 161.493C171.955 161.637 172.244 161.782 172.533 161.782C172.678 161.782 172.967 161.782 173.111 161.782C174.556 161.493 175.712 160.626 176.146 159.181C177.157 156.58 178.168 153.979 179.18 151.523C179.613 150.656 179.324 150.223 178.457 149.934Z" fill="#242424"/>
<path d="M102.023 152.823C101.878 152.968 101.734 152.968 101.734 152.968C101.734 152.968 101.734 151.234 101.734 150.367C101.156 150.367 100.578 150.367 100 150.367C100 152.824 100 155.28 100 157.736H101.3C101.3 157.736 101.734 157.447 101.734 157.158C103.179 158.17 104.768 157.736 105.057 156.002C105.202 155.28 105.202 154.413 104.913 153.546C104.479 152.39 103.323 152.101 102.023 152.823ZM102.456 156.436C101.878 156.436 101.734 155.858 101.734 155.135V154.991C101.734 154.268 102.023 153.979 102.456 153.979C102.89 153.979 103.179 154.413 103.179 154.991C103.179 156.147 103.034 156.436 102.456 156.436Z" fill="#242424"/>
<path d="M198.397 150.801C198.252 150.945 198.252 149.356 198.252 148.778C198.252 148.055 198.252 147.333 198.252 146.61C198.252 145.599 197.963 145.31 197.096 145.31C196.23 145.31 195.941 145.599 195.941 146.61C195.941 148.778 195.941 150.801 195.941 152.968C195.941 154.268 195.941 155.713 195.941 157.014C195.941 157.736 196.374 158.17 197.096 158.025C197.674 158.025 197.963 157.736 198.108 157.158C200.131 159.181 202.442 158.17 203.165 155.858C203.454 154.702 203.454 153.401 203.165 152.245C202.731 149.789 199.986 148.922 198.397 150.801ZM201.287 154.846C201.287 155.569 200.564 156.147 199.842 156.147C199.119 156.147 198.397 155.424 198.397 154.702C198.397 154.413 198.397 153.401 198.397 153.112C198.541 152.39 199.119 151.812 199.842 151.812C200.564 151.812 201.287 152.39 201.287 153.112C201.287 153.69 201.287 154.268 201.287 154.846Z" fill="#242424"/>
<path d="M169.355 153.401C168.777 153.257 168.343 153.112 167.765 152.968C167.476 152.823 166.898 152.679 167.043 152.246C167.187 151.812 167.621 151.668 168.054 151.668C168.488 151.668 169.066 151.812 169.499 151.957C170.222 152.246 170.51 152.101 170.799 151.523C171.088 150.945 170.944 150.656 170.222 150.367C169.21 149.934 168.054 149.934 167.043 150.223C166.754 150.367 166.32 150.512 166.031 150.656C165.02 151.523 164.586 153.69 166.609 154.557C167.187 154.846 167.91 154.991 168.632 155.28C169.066 155.424 169.355 155.713 169.355 156.147C169.21 156.58 168.921 156.725 168.488 156.725C167.765 156.869 167.043 156.58 166.465 156.147C165.742 155.713 165.164 156.147 165.164 156.869C165.164 157.158 165.453 157.592 165.742 157.736C166.465 158.314 167.621 158.459 168.199 158.459C168.632 158.459 168.921 158.459 169.355 158.314C170.655 158.025 171.377 157.303 171.377 156.147C171.088 154.557 170.655 153.835 169.355 153.401Z" fill="#242424"/>
<path d="M208.944 153.401C208.367 153.257 207.933 153.112 207.355 152.968C207.066 152.823 206.488 152.679 206.633 152.246C206.777 151.812 207.211 151.668 207.644 151.668C208.078 151.668 208.656 151.812 209.089 151.957C209.811 152.246 210.1 152.101 210.389 151.523C210.678 150.945 210.534 150.656 209.811 150.367C208.8 149.934 207.644 149.934 206.633 150.223C206.344 150.367 205.91 150.512 205.621 150.656C204.61 151.523 204.176 153.69 206.199 154.557C206.777 154.846 207.5 154.991 208.222 155.28C208.656 155.424 208.944 155.713 208.944 156.147C208.8 156.58 208.511 156.725 208.078 156.725C207.355 156.869 206.633 156.58 206.055 156.147C205.332 155.713 204.754 156.147 204.754 156.869C204.754 157.158 205.043 157.592 205.332 157.736C206.055 158.314 207.211 158.459 207.789 158.459C208.222 158.459 208.511 158.459 208.944 158.314C210.245 158.025 210.967 157.303 210.967 156.147C210.823 154.557 210.245 153.835 208.944 153.401Z" fill="#242424"/>
<path d="M185.104 145.166C184.381 145.166 184.092 145.455 184.092 146.322C184.092 148.055 184.092 149.789 184.092 151.523C184.092 153.257 184.092 154.991 184.092 156.869C184.092 157.592 184.381 158.025 185.248 158.025C185.971 158.025 186.404 157.736 186.404 156.869C186.404 153.402 186.404 149.934 186.404 146.322C186.26 145.455 185.826 145.166 185.104 145.166Z" fill="#242424"/>
<path d="M108.525 155.858C108.091 154.702 107.802 153.69 107.513 152.535C106.791 152.535 106.213 152.535 105.635 152.535C105.78 152.824 105.78 153.112 105.924 153.401C106.358 154.557 106.935 155.858 107.369 157.014C107.802 158.17 107.658 158.748 106.213 158.748H106.069C106.069 159.181 106.069 159.614 106.069 160.048C107.658 160.048 108.669 159.903 109.247 158.459C109.825 157.014 110.259 155.569 110.837 154.268C110.981 153.69 111.27 153.257 111.415 152.679C110.692 152.679 110.114 152.679 109.536 152.679C109.247 153.69 108.814 154.702 108.525 155.858Z" fill="#242424"/>
<path d="M129.331 153.835C129.187 153.69 128.898 153.69 128.753 153.69V153.546C128.753 153.546 128.753 153.402 128.898 153.546C129.187 153.546 129.476 153.546 129.765 153.546C129.909 153.546 129.909 153.546 129.909 153.401C129.909 153.257 129.909 153.257 129.765 153.257C129.476 153.257 129.187 153.257 128.898 153.257C128.898 153.113 128.898 153.113 128.753 152.968C128.898 152.968 129.042 152.968 129.187 152.824C129.62 152.679 129.909 152.39 129.909 152.101C129.909 151.957 129.909 151.957 129.765 151.957C129.62 151.957 129.62 151.957 129.62 152.101C129.62 152.246 129.476 152.39 129.331 152.535C129.187 152.679 128.898 152.679 128.753 152.679C128.898 152.39 128.898 152.246 128.898 151.957C128.898 151.957 128.898 151.957 128.898 151.812C129.042 151.523 129.042 151.379 129.042 151.09C129.042 150.945 128.898 150.945 128.898 150.945C128.753 150.945 128.753 151.09 128.753 151.09C128.753 151.234 128.753 151.379 128.753 151.379C128.609 151.234 128.32 151.234 128.031 151.379C128.031 151.234 128.031 151.09 128.031 151.09C128.031 150.945 128.031 150.945 127.886 150.945C127.742 150.945 127.742 150.945 127.742 151.09C127.742 151.234 127.742 151.523 127.742 151.668C127.742 151.812 127.886 151.957 127.886 152.101C127.886 152.246 127.886 152.39 128.031 152.535C127.886 152.535 127.742 152.535 127.597 152.535C127.308 152.39 127.164 152.246 127.164 151.957C127.164 151.812 127.164 151.812 127.019 151.812C126.875 151.812 126.875 151.812 126.875 151.957C126.875 152.101 126.875 152.246 127.019 152.39C127.164 152.679 127.453 152.679 127.742 152.824C127.886 152.824 127.886 152.824 128.031 152.824C128.031 152.968 127.886 152.968 127.886 153.113C127.886 153.113 127.886 153.113 127.742 153.113C127.453 153.113 127.164 153.113 126.875 153.113C126.73 153.113 126.73 153.113 126.73 153.257C126.73 153.402 126.73 153.401 126.875 153.401C127.164 153.401 127.453 153.401 127.742 153.401C127.886 153.401 127.886 153.402 127.886 153.546V153.69C127.742 153.69 127.597 153.69 127.308 153.835C127.019 153.979 126.73 154.268 126.73 154.702C126.73 154.846 126.73 154.846 126.875 154.846C127.019 154.846 127.019 154.846 127.019 154.702C127.019 154.557 127.019 154.413 127.164 154.268C127.308 154.124 127.597 153.979 127.886 153.979C127.886 153.979 127.742 153.979 127.742 154.124C127.308 154.557 127.164 155.569 127.742 156.147C128.031 156.436 128.32 156.58 128.609 156.436C128.898 156.436 129.042 156.147 129.187 156.002C129.331 155.713 129.476 155.424 129.331 154.991C129.331 154.702 129.187 154.413 128.898 154.124H129.042C129.187 154.124 129.331 154.268 129.476 154.268C129.62 154.413 129.62 154.557 129.62 154.702C129.62 154.846 129.62 154.846 129.765 154.846C129.909 154.846 129.909 154.846 129.909 154.702C129.909 154.702 129.909 154.702 129.909 154.557C129.909 154.268 129.765 153.979 129.331 153.835Z" fill="#242424"/>
<path d="M128.32 140.109C122.396 140.109 117.483 145.021 117.483 150.945C117.483 156.869 122.396 161.782 128.32 161.782C134.244 161.782 139.156 156.869 139.156 150.945C139.156 145.021 134.244 140.109 128.32 140.109ZM132.943 157.014C132.51 157.303 132.077 157.592 131.643 157.592C130.487 157.592 129.331 157.592 128.32 157.592C127.742 157.592 127.164 157.592 126.441 157.592C126.008 157.592 125.43 157.592 124.997 157.592C124.13 157.592 123.552 157.158 123.263 156.436C122.974 155.713 122.974 155.135 123.407 154.557C124.274 153.257 125.286 151.812 126.152 150.512C126.297 150.367 126.297 150.223 126.441 150.078C126.441 150.078 126.441 150.078 126.441 149.934C126.441 148.922 126.441 147.766 126.441 146.755C126.441 146.755 126.441 146.755 126.441 146.611C125.719 146.322 125.43 145.599 125.719 144.877C126.008 144.443 126.297 144.154 126.875 144.154C127.886 144.154 128.898 144.154 130.054 144.154C130.632 144.154 131.21 144.588 131.354 145.166C131.499 145.744 131.21 146.322 130.632 146.611C130.632 146.611 130.632 146.611 130.632 146.755C130.632 147.766 130.632 148.922 130.632 149.934C130.632 149.934 130.632 149.934 130.632 150.078C131.643 151.523 132.654 152.968 133.521 154.413C133.666 154.702 133.81 154.991 133.955 155.28C133.666 156.002 133.521 156.58 132.943 157.014Z" fill="#242424"/>
<path d="M163.286 151.523C163.864 151.523 164.153 151.234 164.153 150.801C164.153 150.223 163.864 149.934 163.286 149.934C162.708 149.934 162.275 149.934 161.552 149.934C161.552 149.211 161.552 147.477 161.552 147.188C161.552 146.61 161.119 146.322 160.396 146.322C159.818 146.322 159.529 146.466 159.385 146.899C159.24 147.044 159.385 147.333 159.385 147.622C159.385 147.766 159.385 152.679 159.385 155.135C159.385 155.424 159.385 155.713 159.529 156.002C159.674 157.014 160.252 157.592 161.119 157.881C161.841 158.025 162.564 158.025 163.286 158.025C163.864 158.025 164.153 157.592 164.153 157.158C164.153 156.58 163.864 156.291 163.286 156.291C162.997 156.291 162.708 156.291 162.419 156.291C161.986 156.291 161.697 156.147 161.697 155.569C161.697 154.268 161.697 152.968 161.697 151.668C162.13 151.523 162.708 151.523 163.286 151.523Z" fill="#242424"/>
<path d="M148.693 151.957C147.97 149.789 145.369 148.922 142.769 150.512C142.335 150.801 142.335 151.234 142.624 151.668C142.913 152.101 143.202 152.101 143.636 151.957C144.069 151.812 144.647 151.668 145.08 151.668C146.092 151.668 146.67 152.246 146.525 153.401C145.947 153.401 145.658 153.401 144.936 153.401C144.358 153.401 143.491 153.69 142.913 153.979C142.046 154.413 141.613 155.424 141.902 156.58C142.191 157.592 142.913 158.17 143.925 158.17C145.08 158.314 145.803 157.736 146.67 157.014V157.158C146.67 157.736 146.959 158.025 147.681 158.025C148.404 158.025 148.837 157.736 148.837 157.158C148.837 157.014 148.837 157.014 148.837 156.869C148.837 156.725 148.837 156.725 148.837 156.58C148.837 155.28 148.837 154.124 148.837 152.824C148.837 152.679 148.693 152.39 148.693 151.957ZM145.658 156.291C145.08 156.58 144.503 156.436 144.214 156.002C143.925 155.424 144.214 154.846 144.791 154.702C145.369 154.557 145.947 154.557 146.525 154.557C146.67 155.424 146.236 156.002 145.658 156.291Z" fill="#242424"/>
<path d="M194.351 151.957C193.629 149.789 191.028 148.922 188.427 150.512C187.994 150.801 187.994 151.234 188.283 151.668C188.572 152.101 188.861 152.101 189.294 151.957C189.727 151.812 190.305 151.668 190.739 151.668C191.75 151.668 192.328 152.246 192.184 153.401C191.606 153.401 191.317 153.401 190.594 153.401C190.016 153.401 189.15 153.69 188.572 153.979C187.705 154.413 187.271 155.424 187.56 156.58C187.849 157.592 188.572 158.17 189.583 158.17C190.739 158.314 191.461 157.736 192.328 157.014V157.158C192.328 157.736 192.617 158.025 193.34 158.025C194.062 158.025 194.496 157.736 194.496 157.158C194.496 157.014 194.496 157.014 194.496 156.869C194.496 156.725 194.496 156.725 194.496 156.58C194.496 155.28 194.496 154.124 194.496 152.824C194.496 152.679 194.351 152.39 194.351 151.957ZM191.317 156.291C190.739 156.58 190.161 156.436 189.872 156.002C189.583 155.424 189.872 154.846 190.45 154.702C191.028 154.557 191.606 154.557 192.184 154.557C192.328 155.424 191.895 156.002 191.317 156.291Z" fill="#242424"/>
<path d="M155.195 149.789C154.183 149.645 153.316 149.934 152.594 150.801V150.656C152.594 150.078 152.16 149.789 151.438 149.934C150.716 149.934 150.427 150.223 150.427 150.801C150.427 150.945 150.427 151.234 150.427 151.379C150.427 153.113 150.427 154.702 150.427 156.436C150.427 156.58 150.427 156.869 150.427 157.014C150.427 157.592 150.716 157.881 151.438 157.881C152.16 157.881 152.594 157.592 152.594 157.014C152.594 156.725 152.594 156.58 152.594 156.291C152.594 155.28 152.594 154.124 152.594 153.113C152.594 152.535 152.883 152.101 153.461 151.812C153.894 151.523 154.328 151.668 154.761 151.957C155.195 152.246 155.484 152.824 155.484 153.401C155.484 154.557 155.484 155.858 155.484 157.014C155.484 157.592 155.917 157.881 156.495 157.881C157.218 157.881 157.651 157.592 157.651 157.014C157.651 155.569 157.651 153.979 157.651 152.535C157.651 151.234 156.495 150.078 155.195 149.789Z" fill="#242424"/>
<path d="M216.024 147.477C216.024 146.755 215.591 146.322 214.724 146.322H213.713V149.789H214.435V148.489H214.724L215.446 149.789H216.313L215.446 148.344C215.88 148.2 216.024 147.911 216.024 147.477ZM214.869 147.911H214.435V146.899H214.724C215.013 146.899 215.302 147.044 215.302 147.333C215.302 147.766 215.157 147.911 214.869 147.911Z" fill="#242424"/>
<path d="M217.036 146.033C216.458 145.455 215.735 145.166 214.869 145.166C214.002 145.166 213.279 145.455 212.701 146.033C212.123 146.611 211.834 147.333 211.834 148.2C211.834 149.067 212.123 149.789 212.701 150.367C213.279 150.945 214.002 151.234 214.869 151.234C215.735 151.234 216.458 150.945 217.036 150.367C217.614 149.789 217.903 149.067 217.903 148.2C217.903 147.333 217.614 146.611 217.036 146.033ZM216.602 149.934C216.169 150.367 215.591 150.656 214.869 150.656C214.146 150.656 213.568 150.367 213.135 149.934C212.701 149.5 212.412 148.922 212.412 148.2C212.412 147.477 212.701 146.9 213.135 146.466C213.568 146.033 214.146 145.744 214.869 145.744C215.591 145.744 216.169 146.033 216.602 146.466C217.036 146.9 217.325 147.477 217.325 148.2C217.325 148.922 217.036 149.5 216.602 149.934Z" fill="#242424"/>
</svg>
