<svg width="18" height="18" viewBox="0 0 18 18" fill="none" xmlns="http://www.w3.org/2000/svg">
<g clip-path="url(#clip0)">
<path d="M16.8 2.80005V0.800049H14.8L16.8 2.80005Z" stroke="#434345" stroke-width="1.5" stroke-miterlimit="10" stroke-linecap="round" stroke-linejoin="round"/>
<path d="M7.90002 9.60005L16.3 1.30005" stroke="#434345" stroke-width="1.5" stroke-miterlimit="10" stroke-linecap="round" stroke-linejoin="round"/>
<path d="M16.1 5.70005C16.5 6.70005 16.7 7.70005 16.7 8.80005C16.7 13.2 13.1 16.8 8.70001 16.8C4.30001 16.8 0.700012 13.2 0.700012 8.80005C0.700012 4.40005 4.30001 0.800049 8.70001 0.800049C9.80001 0.800049 10.9 1.00005 11.8 1.40005" stroke="#434345" stroke-width="1.5" stroke-miterlimit="10" stroke-linecap="round" stroke-linejoin="round"/>
<path d="M13.6 8.80015C13.6 11.5001 11.4 13.7001 8.69999 13.7001C5.99999 13.7001 3.79999 11.5001 3.79999 8.80015C3.79999 6.10015 5.99999 3.90015 8.69999 3.90015" stroke="#434345" stroke-miterlimit="10" stroke-linecap="round" stroke-linejoin="round" stroke-dasharray="5 5"/>
</g>
<defs>
<clipPath id="clip0">
<rect width="17.5" height="17.5" fill="white"/>
</clipPath>
</defs>
</svg>
