<svg width="26" height="29" viewBox="0 0 26 29" fill="none" xmlns="http://www.w3.org/2000/svg">
<g clip-path="url(#clip0)">
<path d="M24.5002 20.4C24.5002 19.9 24.2002 19.5 23.8002 19.4C21.7002 18.5 19.5002 17.4 17.3002 16.5C15.1002 15.5 12.6002 2.30005 12.6002 2.30005C12.6002 2.30005 10.0002 15.6 7.6002 16.6C5.4002 17.5 3.3002 18.6 1.4002 19.5C1.0002 19.7001 0.700195 20.1 0.700195 20.5C0.700195 24.5 3.9002 27.8 8.0002 27.8H17.2002C21.3002 27.7 24.6002 24.4 24.5002 20.4Z" fill="white" stroke="#414042" stroke-width="1.5" stroke-miterlimit="10" stroke-linecap="round" stroke-linejoin="round"/>
<path d="M21.9 18.2999C21.9 19.3999 21.6 20.9 21.6 20.9C21.4 21.7 20.9 22.5 20.3 23.1C19.3 24.1 17.9 24.7 16.5 24.7H8.9C7.5 24.7 6.1 24.1 5.1 23.1C4.5 22.5 4 21.6999 3.8 20.7999C3.8 20.7999 3.5 19.9 3.5 18.2" stroke="#414042" stroke-miterlimit="10" stroke-linecap="round" stroke-linejoin="round" stroke-dasharray="8 8"/>
<path d="M19 7.80005C18.9 7.70005 18.7 7.80005 18.6 7.80005C18.6 3.50005 15.9 0.800049 12.7 0.800049C9.39997 0.800049 6.79997 3.50005 6.79997 7.80005C6.59997 7.70005 6.49997 7.70005 6.29997 7.80005C5.59997 8.00005 5.49997 9.00005 5.89997 10.1C6.29997 11 6.89997 11.7 7.49997 11.6C7.79997 12.3 8.09997 12.9 8.59997 13.4C9.69997 14.7 11.2 16.2 12.7 16.2C14.1 16.2 15.5 14.8 16.8 13.5C17.3 13 17.6 12.4 17.9 11.7C18.4 11.6 19 11 19.3 10.2C19.7 9.00005 19.6 8.00005 19 7.80005Z" fill="white" stroke="#414042" stroke-width="1.5" stroke-miterlimit="10" stroke-linecap="round" stroke-linejoin="round"/>
</g>
<defs>
<clipPath id="clip0">
<rect width="25.3" height="28.5" fill="white"/>
</clipPath>
</defs>
</svg>
