<svg width="21" height="21" viewBox="0 0 21 21" fill="none" xmlns="http://www.w3.org/2000/svg">
<path d="M15.3996 17.4C15.1996 17.5 15.0996 17.7 15.0996 17.9C15.0996 18.1 15.0996 18.3 15.1996 18.4C15.2996 18.6 15.5996 18.7 15.7996 18.7C15.9996 18.7 16.0996 18.7 16.1996 18.6C16.4996 18.4 16.5996 17.9 16.3996 17.5C16.1996 17.2 15.6996 17.1 15.3996 17.4Z" fill="#D1D3D4"/>
<path d="M12.9 18.6C12.1 18.9 11.2 19 10.3 19C5.5 19 1.5 15.1 1.5 10.2C1.5 5.3 5.4 1.4 10.3 1.4C10.7 1.4 11.1 1.1 11.1 0.6C11.1 0.1 10.7 0 10.3 0C4.6 0 0 4.6 0 10.3C0 15.9 4.6 20.5 10.2 20.5C11.3 20.5 12.3 20.3 13.3 20C13.7 19.9 13.9 19.5 13.8 19.1C13.7 18.7 13.3 18.5 12.9 18.6Z" fill="#D1D3D4"/>
<path d="M19.7 9.5C19.3 9.5 19 9.8 19 10.2C19 10.6 19.3 11 19.8 11C20.2 11 20.6 10.7 20.6 10.2C20.5 9.8 20.2 9.5 19.7 9.5Z" fill="#D1D3D4"/>
<path d="M19.5 12.5C19.1 12.4 18.7 12.6 18.5 13C18.2 13.9 17.8 14.7 17.2 15.4C17.1 15.6 17 15.8 17.1 16C17.1 16.2 17.2 16.4 17.4 16.5C17.5 16.6 17.7 16.6 17.8 16.6C18 16.6 18.3 16.5 18.4 16.3C19.1 15.4 19.5 14.5 19.9 13.4C20 13.2 19.9 13 19.9 12.8C19.9 12.7 19.7 12.5 19.5 12.5Z" fill="#D1D3D4"/>
<path d="M15.5998 6.60006C15.7998 6.60006 15.9998 6.50006 16.0998 6.30006C16.1998 6.20006 16.2998 6.00006 16.2998 5.80006C16.2998 5.60006 16.1998 5.40006 15.9998 5.20006C15.7998 5.00006 15.2998 5.00006 14.9998 5.30006C14.8998 5.40006 14.7998 5.60006 14.7998 5.80006C14.7998 6.00006 14.8998 6.20006 14.9998 6.40006C15.1998 6.50006 15.3998 6.60006 15.5998 6.60006Z" fill="#D1D3D4"/>
<path d="M12.9998 7.50002L8.8998 12.1L7.4998 10.6C7.1998 10.3 6.6998 10.3 6.3998 10.6C6.0998 10.9 6.0998 11.4 6.3998 11.7L8.3998 13.7C8.4998 13.9 8.6998 13.9 8.8998 13.9C9.0998 13.9 9.2998 13.8 9.3998 13.7L14.0998 8.60002C14.3998 8.30002 14.3998 7.80002 14.0998 7.50002C13.7998 7.20002 13.2998 7.20002 12.9998 7.50002Z" fill="#D1D3D4"/>
</svg>
