<svg width="334" height="81" viewBox="0 0 334 81" fill="none" xmlns="http://www.w3.org/2000/svg">
<path d="M0.5 72.1V15.5C0.5 7.2 7.2 0.5 15.5 0.5H318.5C326.8 0.5 333.5 7.2 333.5 15.5V72.2" stroke="#E6E7E8" stroke-miterlimit="10" stroke-linecap="round" stroke-linejoin="round"/>
<path d="M4.5 72.2V15.5C4.5 9.4 9.4 4.5 15.5 4.5H318.5C324.6 4.5 329.5 9.4 329.5 15.5V72.1" stroke="#E6E7E8" stroke-miterlimit="10" stroke-linecap="round" stroke-linejoin="round"/>
<path d="M8.5 72.1V15.5C8.5 11.6 11.6 8.5 15.5 8.5H318.6C322.5 8.5 325.6 11.6 325.6 15.5V72.1" stroke="#E6E7E8" stroke-miterlimit="10" stroke-linecap="round" stroke-linejoin="round"/>
<path d="M12.4 72.2V15.4C12.4 13.7 13.7 12.4 15.4 12.4H318.5C320.2 12.4 321.5 13.7 321.5 15.4V72" stroke="#E6E7E8" stroke-miterlimit="10" stroke-linecap="round" stroke-linejoin="round"/>
<path d="M16.4 72.1V16.4H317.6V72.1" stroke="#E6E7E8" stroke-miterlimit="10" stroke-linecap="round" stroke-linejoin="round"/>
<path d="M20.4 72.1V20.4H313.6V72.1" stroke="#E6E7E8" stroke-miterlimit="10" stroke-linecap="round" stroke-linejoin="round"/>
<path d="M24.4 72.1V24.4H309.6V72.1" stroke="#E6E7E8" stroke-miterlimit="10" stroke-linecap="round" stroke-linejoin="round"/>
<path d="M28.3 72.1V28.3H305.7V72.1" stroke="#E6E7E8" stroke-miterlimit="10" stroke-linecap="round" stroke-linejoin="round"/>
<path d="M32.3 72.1V32.3H64.1V72.1" stroke="#E6E7E8" stroke-miterlimit="10" stroke-linecap="round" stroke-linejoin="round"/>
<path d="M36.3 72.0999V36.2L60.2 36.2999V72.0999" stroke="#E6E7E8" stroke-miterlimit="10" stroke-linecap="round" stroke-linejoin="round"/>
<path d="M40.3 72.0999V40.2999L56.2 40.2V72.1999" stroke="#E6E7E8" stroke-miterlimit="10" stroke-linecap="round" stroke-linejoin="round"/>
<path d="M44.2 72.1V44.3H52.2V72.1" stroke="#E6E7E8" stroke-miterlimit="10" stroke-linecap="round" stroke-linejoin="round"/>
<path d="M285.8 48.3V72.1" stroke="#E6E7E8" stroke-miterlimit="10" stroke-linecap="round" stroke-linejoin="round"/>
<path d="M48.2 72.1V48.3" stroke="#E6E7E8" stroke-miterlimit="10" stroke-linecap="round" stroke-linejoin="round"/>
<path d="M269.9 72.1V32.3H301.7V72.1" stroke="#E6E7E8" stroke-miterlimit="10" stroke-linecap="round" stroke-linejoin="round"/>
<path d="M68.1 72.1V68.1H90.4H244.2H265.9V72.1" stroke="#E6E7E8" stroke-miterlimit="10" stroke-linecap="round" stroke-linejoin="round"/>
<path d="M72.1 72.1H82.8H251.6H261.9" stroke="#E6E7E8" stroke-miterlimit="10" stroke-linecap="round" stroke-linejoin="round"/>
<path d="M333.5 76H0.5V80H333.5V76Z" stroke="#EBEBEC" stroke-miterlimit="10" stroke-linecap="round" stroke-linejoin="round"/>
<path d="M273.8 72.1999V36.2999L297.7 36.2V72.0999" stroke="#E6E7E8" stroke-miterlimit="10" stroke-linecap="round" stroke-linejoin="round"/>
<path d="M277.8 72.0999V40.2L293.7 40.2999V72.0999" stroke="#E6E7E8" stroke-miterlimit="10" stroke-linecap="round" stroke-linejoin="round"/>
<path d="M289.8 72.1V44.3H281.8V72.1" stroke="#E6E7E8" stroke-miterlimit="10" stroke-linecap="round" stroke-linejoin="round"/>
</svg>
