<svg width="319" height="245" viewBox="0 0 319 245" fill="none" xmlns="http://www.w3.org/2000/svg">
<path d="M220.6 65.6999C221.981 65.6999 223.1 64.5807 223.1 63.2C223.1 61.8192 221.981 60.7 220.6 60.7C219.219 60.7 218.1 61.8192 218.1 63.2C218.1 64.5807 219.219 65.6999 220.6 65.6999Z" stroke="#E6E7E8" stroke-width="1.5" stroke-miterlimit="10"/>
<path d="M97.6 65.6999C98.9807 65.6999 100.1 64.5807 100.1 63.2C100.1 61.8192 98.9807 60.7 97.6 60.7C96.2193 60.7 95.1 61.8192 95.1 63.2C95.1 64.5807 96.2193 65.6999 97.6 65.6999Z" stroke="#E6E7E8" stroke-width="1.5" stroke-miterlimit="10"/>
<path d="M166.6 236.9H299.6C304.5 236.9 309 235 312.5 231.6C315.9 228.2 317.8 223.6 317.8 218.7L317.7 81.4999C317.7 76.5999 315.8 72.0999 312.4 68.5999C309 65.1999 304.4 63.2999 299.5 63.2999H224.1" stroke="#E6E7E8" stroke-width="1.5" stroke-miterlimit="10" stroke-linecap="round" stroke-linejoin="round"/>
<path d="M0.800003 85.7V218.7C0.800003 223.6 2.7 228.1 6.1 231.6C9.5 235 14.1 236.9 19 236.9H151.7" stroke="#E6E7E8" stroke-width="1.5" stroke-miterlimit="10" stroke-linecap="round" stroke-linejoin="round"/>
<path d="M94.5 63.2H23.3" stroke="#E6E7E8" stroke-width="1.5" stroke-miterlimit="10" stroke-linecap="round" stroke-linejoin="round"/>
<path d="M97.7 60.7C99 27.9 126 1.69995 159.1 1.69995C192.2 1.69995 219.2 27.9 220.5 60.7" stroke="#E6E7E8" stroke-width="1.5" stroke-miterlimit="10"/>
<path d="M220.5 65.7C219.2 98.5 192.2 124.7 159.1 124.7C126 124.7 99 98.5 97.7 65.7" stroke="#E6E7E8" stroke-width="1.5" stroke-miterlimit="10"/>
<path d="M158.894 231C156.113 231 153.796 233.225 153.796 236.099C153.796 240.826 158.431 243.422 158.616 243.607C158.709 243.7 158.802 243.7 158.802 243.7C158.894 243.7 158.987 243.7 159.08 243.607C159.265 243.422 163.9 240.641 163.9 236.099C163.993 233.225 161.675 231 158.894 231Z" stroke="#A7A9AC" stroke-width="1.5" stroke-miterlimit="10" stroke-linecap="round" stroke-linejoin="round"/>
<path d="M158.894 233.503C160.192 233.503 161.305 234.615 161.305 235.913C161.305 237.118 160.47 237.953 158.894 239.436C157.689 238.323 156.484 237.489 156.484 235.913C156.484 234.615 157.597 233.503 158.894 233.503Z" stroke="#A7A9AC" stroke-width="1.5" stroke-miterlimit="10" stroke-linecap="round" stroke-linejoin="round"/>
</svg>
