<svg width="17" height="10" viewBox="0 0 17 10" fill="none" xmlns="http://www.w3.org/2000/svg">
<g clip-path="url(#clip0)">
<path d="M2.69961 5.29998C2.49961 5.29998 2.29961 5.19998 2.19961 5.09998L0.199609 3.19998C-0.100391 2.89998 -0.100391 2.39998 0.199609 2.09998L2.09961 0.199984C2.39961 -1.62125e-05 2.69961 -0.100016 2.99961 0.0999838C3.29961 0.199984 3.49961 0.499984 3.49961 0.799984V4.59998C3.49961 4.89998 3.29961 5.19998 2.99961 5.29998C2.79961 5.29998 2.79961 5.29998 2.69961 5.29998Z" fill="#434345"/>
<path d="M15.3 9.90002C14.9 9.90002 14.5 9.60002 14.5 9.10002C14.5 8.60002 14.8 8.30002 15.3 8.30002C15.7 8.30002 16.1 8.60002 16.1 9.10002C16.1 9.60002 15.8 9.90002 15.3 9.90002ZM15 7.00002C14.7 7.00002 14.4 6.80002 14.3 6.50002C14.2 6.20002 14.1 6.00002 13.9 5.70002C13.8 5.50002 13.8 5.30002 13.8 5.10002C13.8 4.90002 14 4.70002 14.1 4.60002C14.5 4.40002 14.9 4.50002 15.1 4.90002C15.3 5.20002 15.5 5.60002 15.6 5.90002C15.8 6.30002 15.6 6.70002 15.2 6.90002C15.2 6.90002 15.1 7.00002 15 7.00002ZM12.4 4.00002C12.3 4.00002 12.1 4.00002 12 4.00002C11.3 3.60002 10.6 3.50002 9.8 3.50002H4.4C4.4 3.50002 4.4 3.50002 4.3 3.50002H1.7C1.3 3.40002 1 3.10002 1 2.70002C1 2.30002 1.3 1.90002 1.7 1.90002H9.8C10.8 1.90002 11.8 2.10002 12.7 2.60002C13.1 2.80002 13.2 3.30002 13 3.60002C12.9 3.90002 12.7 4.00002 12.4 4.00002Z" fill="#434345"/>
</g>
<defs>
<clipPath id="clip0">
<rect width="16.1" height="9.9" fill="white"/>
</clipPath>
</defs>
</svg>
