<svg width="20" height="17" viewBox="0 0 20 17" fill="none" xmlns="http://www.w3.org/2000/svg">
<path d="M16.1 7.59998H13.1C12.7 7.59998 12.3 7.89998 12.3 8.29998C12.3 8.69998 12.6 9.09998 13 9.09998H16C16.4 9.09998 16.7 8.79998 16.8 8.39998C16.8 8.19998 16.7 7.99998 16.6 7.89998C16.5 7.69998 16.3 7.59998 16.1 7.59998Z" fill="#434345"/>
<path d="M10.1 7.49998H2.49998L8.59998 1.29998C8.89998 0.999975 8.89998 0.499976 8.59998 0.199976C8.29998 -0.100024 7.79998 -0.100024 7.49998 0.199976L0.199976 7.59998C-0.100024 7.89998 -0.100024 8.39997 0.199976 8.69998L7.59998 16.2C7.69998 16.3 7.89998 16.4 8.09998 16.4C8.29998 16.4 8.49998 16.3 8.59998 16.2C8.99998 16 8.99998 15.5 8.69998 15.2L2.59998 8.99998H10.1C10.5 8.99998 10.8 8.69998 10.9 8.29998C10.9 8.09998 10.8 7.89998 10.7 7.79998C10.5 7.59998 10.3 7.49998 10.1 7.49998Z" fill="#434345"/>
<path d="M19.1 7.59998C18.7 7.59998 18.3 7.89998 18.3 8.29998C18.3 8.49998 18.4 8.69998 18.5 8.79998C18.6 8.89998 18.8 8.99998 19 8.99998C19.4 8.99998 19.7 8.69998 19.8 8.29998C19.9 7.99998 19.5 7.59998 19.1 7.59998Z" fill="#434345"/>
</svg>
