<svg width="15" height="15" viewBox="0 0 15 15" fill="none" xmlns="http://www.w3.org/2000/svg">
<g clip-path="url(#clip0)">
<path d="M6.4 12.8C2.9 12.8 0 9.9 0 6.4C0 2.9 2.9 0 6.4 0C9.9 0 12.8 2.9 12.8 6.4C12.8 9.9 9.9 12.8 6.4 12.8ZM6.4 1.5C3.7 1.5 1.5 3.7 1.5 6.4C1.5 9.1 3.7 11.3 6.4 11.3C9.1 11.3 11.3 9.1 11.3 6.4C11.3 3.7 9.1 1.5 6.4 1.5Z" fill="#D1D3D4"/>
<path d="M4.09961 6.89996C3.79961 6.89996 3.59961 6.69996 3.59961 6.39996C3.59961 5.09996 4.49961 3.99996 5.69961 3.69996C5.99961 3.59996 6.29961 3.79996 6.29961 4.09996C6.39961 4.29996 6.19961 4.59996 5.99961 4.69996C5.19961 4.89996 4.59961 5.59996 4.59961 6.39996C4.59961 6.69996 4.39961 6.89996 4.09961 6.89996Z" fill="#D1D3D4"/>
<path d="M13.9996 14.5C13.7996 14.5 13.5996 14.4 13.4996 14.3L10.1996 11C9.89961 10.7 9.89961 10.2 10.1996 9.90005C10.4996 9.60005 10.9996 9.60005 11.2996 9.90005L14.5996 13.2C14.8996 13.5 14.8996 14 14.5996 14.3C14.3996 14.4 14.1996 14.5 13.9996 14.5Z" fill="#D1D3D4"/>
</g>
<defs>
<clipPath id="clip0">
<rect width="14.7" height="14.5" fill="white"/>
</clipPath>
</defs>
</svg>
