<svg width="26" height="27" viewBox="0 0 26 27" fill="none" xmlns="http://www.w3.org/2000/svg">
<g clip-path="url(#clip0)">
<path d="M14.6 26.8984C13.7 26.8984 12.8 26.2679 12.6 25.3223L12.2 23.9563C12.1 23.7462 11.9 23.536 11.7 23.536C11 23.431 10.3 23.3259 9.7 23.0107C9.5 22.9056 9.2 23.0107 9.1 23.2208L8.2 24.2715C7.5 25.1121 6.3 25.2172 5.4 24.5868C4.5 23.8513 3.6 23.1157 2.9 22.1701C2.2 21.3295 2.3 20.0686 3 19.2281L3.9 18.1773C4 17.8621 4.1 17.652 4 17.4418C3.7 16.8114 3.5 16.0759 3.4 15.3404C3.4 15.1302 3.2 14.9201 2.9 14.9201L1.6 14.6049C0.599995 14.3947 -0.100005 13.344 -5.42775e-06 12.1882C0.0999946 11.0324 0.399995 9.87662 0.799995 8.72082C1.2 7.6701 2.3 7.03966 3.3 7.35488L4.6 7.6701C4.8 7.6701 5 7.56502 5.2 7.35488C5.6 6.72444 6.1 6.19908 6.6 5.77879C6.8 5.67372 6.8 5.3585 6.8 5.14836L6.4 3.78242C6.1 2.73169 6.6 1.57589 7.5 1.05053C8.5 0.52517 9.6 0.209953 10.8 -0.000191927C11.8 -0.210337 12.9 0.52517 13.2 1.57589L13.6 2.94184C13.7 3.15198 13.9 3.36213 14.1 3.36213C14.8 3.4672 15.5 3.57227 16.1 3.88749C16.3 3.99256 16.6 3.88749 16.7 3.67734L17.6 2.62662C18.3 1.78604 19.5 1.68097 20.4 2.3114C21.3 3.04691 22.2 3.78242 22.9 4.72807C23.6 5.56865 23.5 6.82952 22.8 7.6701L21.9 8.72082C21.7 8.93097 21.7 9.14111 21.8 9.35125C22.1 10.0868 22.3 10.7172 22.4 11.4527C22.4 11.6628 22.6 11.873 22.9 11.9781L24.1 12.2933C25.2 12.5034 25.9 13.6592 25.7 14.815C25.6 15.6556 25.3 17.0215 25 18.0723C24.7 19.2281 23.6 19.8585 22.5 19.6484L21.2 19.3331C21 19.2281 20.7 19.3331 20.6 19.5433C20.2 20.1737 19.7 20.6991 19.2 21.1194C19 21.2244 19 21.5397 19 21.7498L19.4 23.1157C19.7 24.1665 19.2 25.3223 18.2 25.8476C17.2 26.373 16.1 26.6882 14.9 26.8984C14.8 26.8984 14.7 26.8984 14.6 26.8984ZM9.5 21.4346C9.7 21.4346 10 21.4346 10.2 21.5397C10.8 21.7498 11.3 21.8549 11.9 21.9599C12.7 22.065 13.4 22.6955 13.6 23.536L14 24.902C14.1 25.2172 14.4 25.4273 14.7 25.3223C15.7 25.1121 16.7 24.7969 17.6 24.3766C17.9 24.2715 18 23.8513 18 23.536L17.6 22.1701C17.4 21.3295 17.6 20.3839 18.2 19.8585C18.6 19.4382 19.1 19.0179 19.4 18.4926C19.9 17.7571 20.7 17.4418 21.5 17.652L22.8 17.9672C23.1 18.0723 23.4 17.8621 23.5 17.5469C23.8 16.4962 24 15.3404 24.1 14.4998C24.1 14.1846 23.9 13.8694 23.6 13.7643L22.5 13.6592C21.7 13.4491 21 12.8186 20.9 11.9781C20.8 11.3476 20.6 10.7172 20.4 10.1918C20.1 9.35125 20.2 8.51068 20.8 7.88024L21.7 6.82952C21.9 6.61937 21.9 6.19908 21.7 5.98894C21.1 5.14836 20.3 4.41285 19.5 3.78242C19.2 3.57227 18.9 3.57227 18.7 3.88749L17.8 4.93821C17.2 5.56865 16.4 5.77879 15.6 5.56865C15 5.3585 14.5 5.25343 13.9 5.14836C13.1 5.04329 12.4 4.41285 12.2 3.57227L11.8 2.20633C11.7 1.89111 11.4 1.68097 11.1 1.78604C10.1 1.99618 9.1 2.3114 8.2 2.73169C7.9 2.62662 7.7 2.94184 7.8 3.25705L8.2 4.623C8.4 5.46357 8.2 6.40923 7.6 6.93459C7.1 7.35488 6.7 7.77517 6.4 8.30053C5.9 8.93097 5 9.24618 4.2 9.14111L2.9 8.72082C2.6 8.72082 2.3 8.82589 2.2 9.14111C1.8 10.0868 1.6 11.1375 1.5 12.1882C1.5 12.5034 1.7 12.8186 2 12.9237L3.3 13.2389C4.1 13.4491 4.7 14.0795 4.9 14.9201C5 15.6556 5.1 16.181 5.4 16.8114C5.7 17.652 5.6 18.4926 5 19.123L4.1 20.1737C3.9 20.3839 3.9 20.8042 4.1 21.0143C4.7 21.8549 5.5 22.5904 6.3 23.2208C6.5 23.431 6.8 23.3259 7 23.1157L8 22.065C8.4 21.6447 8.9 21.4346 9.5 21.4346Z" fill="#434345"/>
<path d="M12.8 18.0725C11.6 18.0725 10.5 17.5471 9.69999 16.7065C8.59999 15.5507 8.19999 13.9746 8.49999 12.3985C8.89999 10.7174 10.2 9.35144 11.8 8.93115C13.3 8.61594 14.9 9.03623 15.9 10.192C17 11.3478 17.4 12.9239 17.1 14.5C16.7 16.1812 15.4 17.6522 13.8 17.9674C13.5 18.0725 13.2 18.0725 12.8 18.0725ZM12.8 10.4022C12.6 10.4022 12.3 10.4022 12.1 10.5072C11 10.7174 10.2 11.663 9.89999 12.8188C9.69999 13.8696 9.99999 14.9203 10.7 15.7609C11.4 16.4964 12.4 16.8116 13.5 16.6014C14.6 16.3913 15.4 15.4456 15.7 14.2898C15.9 13.2391 15.6 12.1884 14.9 11.3478C14.3 10.7174 13.6 10.4022 12.8 10.4022Z" fill="#434345"/>
<path d="M12.8 20.9095C9.7 20.9095 6.9 18.7029 6 15.5508C5.9 15.2355 6.1 15.0254 6.3 14.9203C6.6 14.8153 6.8 15.0254 6.9 15.2355C7.7 17.9674 10.1 19.8587 12.8 19.8587C13.3 19.8587 13.7 19.7537 14.2 19.6486C14.7 19.5435 15.1 19.3334 15.5 19.1232C15.7 19.0182 16 19.1232 16.2 19.3334C16.3 19.5435 16.2 19.8587 16 20.0689C15.5 20.279 15 20.4892 14.4 20.6993C13.9 20.8044 13.4 20.9095 12.8 20.9095ZM18.1 18.1776C18 18.1776 17.9 18.1776 17.8 18.0725C17.6 17.8624 17.5 17.5471 17.7 17.337C18.2 16.6015 18.6 15.7609 18.8 14.9203C18.9 14.5 18.9 14.1848 19 13.7645C19 13.4493 19.2 13.2392 19.5 13.2392C19.8 13.2392 20 13.4493 20 13.7645C20 14.1848 19.9 14.6051 19.8 15.1305C19.6 16.1812 19.1 17.1268 18.5 17.9674C18.4 18.1776 18.2 18.1776 18.1 18.1776ZM6.3 12.8189C5.9 12.8189 5.8 12.5037 5.8 12.1884C5.8 11.9783 5.9 11.8732 5.9 11.6631C6.2 10.4022 6.8 9.14134 7.7 8.19569C7.9 7.98554 8.2 7.98554 8.4 8.19569C8.6 8.40583 8.6 8.72105 8.4 8.93119C7.6 9.77177 7.1 10.8225 6.8 11.9783C6.8 12.0834 6.7 12.2935 6.7 12.3986C6.8 12.6087 6.6 12.8189 6.3 12.8189ZM18.9 11.2428C18.7 11.2428 18.5 11.1377 18.4 10.9276C17.4 8.5109 15.2 7.03989 12.8 7.03989C12.3 7.03989 11.9 7.14496 11.4 7.25004C11.2 7.25004 11 7.35511 10.7 7.46018C10.4 7.56525 10.2 7.46018 10.1 7.14496C10 6.82975 10.1 6.6196 10.4 6.51453C10.7 6.40946 10.9 6.30438 11.2 6.30438C11.7 6.19931 12.3 6.09424 12.8 6.09424C15.6 6.09424 18.2 7.88047 19.3 10.6124C19.4 10.9276 19.3 11.1377 19 11.3479C19 11.2428 19 11.2428 18.9 11.2428Z" fill="#434345"/>
</g>
<defs>
<clipPath id="clip0">
<rect width="25.7" height="26.8985" fill="white"/>
</clipPath>
</defs>
</svg>
