<svg width="371" height="292" viewBox="0 0 371 292" fill="none" xmlns="http://www.w3.org/2000/svg">
<g clip-path="url(#clip0)">
<path d="M25 183.6L23.5 183.2C23.3 184.2 23 185.2 22.8 186.2L24.3 186.5C24.5 185.6 24.7 184.6 25 183.6Z" fill="#E6E7E8"/>
<path d="M149.9 58L150.2 59.5C151.2 59.3 152.2 59 153.2 58.8L152.9 57.3C151.9 57.6 150.9 57.8 149.9 58Z" fill="#E6E7E8"/>
<path d="M185.9 45.9C181.4 45.9 177.7 49.5 177.5 54C169.9 54.5 162.4 55.5 155 56.9L155.3 58.4C162.6 56.9 170.1 56 177.6 55.5C178.2 59.6 181.7 62.8 186 62.8C190.3 62.8 193.8 59.6 194.4 55.5C201.9 56 209.4 56.9 216.7 58.4L217 56.9C209.6 55.4 202 54.5 194.5 54C194.1 49.5 190.4 45.9 185.9 45.9ZM185.9 61.3C182.1 61.3 179 58.2 179 54.4C179 50.6 182.1 47.5 185.9 47.5C189.7 47.5 192.8 50.6 192.8 54.4C192.8 58.2 189.7 61.3 185.9 61.3Z" fill="#E6E7E8"/>
<path d="M77.3 95.1L78.3 96.3C79.3 95.4 80.4 94.5 81.4 93.7L80.4 92.5C79.4 93.3 78.4 94.2 77.3 95.1Z" fill="#E6E7E8"/>
<path d="M58.6 114.1L59.8 115.1C65 108.9 70.8 103 76.9 97.6L75.9 96.5C69.7 101.9 63.9 107.8 58.6 114.1Z" fill="#E6E7E8"/>
<path d="M143.9 59.5L144.3 61C145.6 60.6 146.9 60.3 148.2 60L147.8 58.5C146.5 58.8 145.2 59.2 143.9 59.5Z" fill="#E6E7E8"/>
<path d="M118.7 68.6L119.3 70C126.7 66.7 134.4 63.8 142.3 61.6L141.9 60.1C134 62.3 126.2 65.2 118.7 68.6Z" fill="#E6E7E8"/>
<path d="M86.1 87.9L87 89.1C93.5 84.2 100.4 79.7 107.5 75.8L106.8 74.5C99.6 78.5 92.7 83 86.1 87.9Z" fill="#E6E7E8"/>
<path d="M108.6 73.5L109.3 74.9C110.5 74.3 111.7 73.6 112.9 73L112.2 71.6C111 72.3 109.8 72.9 108.6 73.5Z" fill="#E6E7E8"/>
<path d="M114.1 70.7L114.8 72.1C115.7 71.7 116.6 71.2 117.6 70.8L116.9 69.4C115.9 69.9 115 70.3 114.1 70.7Z" fill="#E6E7E8"/>
<path d="M55.3 118.1L56.5 119.1C57.1 118.3 57.8 117.5 58.4 116.7L57.2 115.7C56.6 116.5 56 117.3 55.3 118.1Z" fill="#E6E7E8"/>
<path d="M82.1 91.1L83.1 92.3C83.9 91.7 84.7 91 85.5 90.4L84.6 89.2C83.7 89.8 82.9 90.5 82.1 91.1Z" fill="#E6E7E8"/>
<path d="M21.5 192.3L23 192.6C23.2 191.3 23.5 189.9 23.8 188.6L22.3 188.3C22 189.6 21.8 190.9 21.5 192.3Z" fill="#E6E7E8"/>
<path d="M32.6 155.9L34 156.5C34.5 155.2 35.1 154 35.7 152.8L34.3 152.2C33.7 153.4 33.2 154.7 32.6 155.9Z" fill="#E6E7E8"/>
<path d="M24 181.2L25.5 181.6C27.5 173.7 30.1 165.9 33.3 158.4L31.9 157.8C28.6 165.4 26 173.3 24 181.2Z" fill="#E6E7E8"/>
<path d="M37.5 145.7L38.9 146.4C42.6 139.2 46.9 132.2 51.7 125.5L50.5 124.6C45.6 131.3 41.2 138.4 37.5 145.7Z" fill="#E6E7E8"/>
<path d="M35.2 150.3L36.6 151C37 150.1 37.5 149.2 37.9 148.2L36.5 147.5C36.1 148.4 35.6 149.4 35.2 150.3Z" fill="#E6E7E8"/>
<path d="M51.6 123L52.8 123.9C53.6 122.8 54.4 121.7 55.3 120.6L54.1 119.7C53.2 120.8 52.4 121.9 51.6 123Z" fill="#E6E7E8"/>
<path d="M347.5 186.6L349 186.3C348.8 185.3 348.5 184.3 348.3 183.3L346.8 183.7C347 184.6 347.3 185.6 347.5 186.6Z" fill="#E6E7E8"/>
<path d="M218.5 58.9C219.5 59.1 220.5 59.3 221.5 59.6L221.8 58.1C220.8 57.9 219.8 57.6 218.8 57.4L218.5 58.9Z" fill="#E6E7E8"/>
<path d="M290.3 93.6C291.3 94.5 292.4 95.3 293.4 96.2L294.4 95C293.4 94.1 292.3 93.2 291.3 92.3L290.3 93.6Z" fill="#E6E7E8"/>
<path d="M295.9 96.4L294.9 97.5C301 102.9 306.7 108.8 312 115L313.2 114C307.9 107.8 302.1 101.9 295.9 96.4Z" fill="#E6E7E8"/>
<path d="M223.5 60C224.8 60.3 226.1 60.7 227.4 61L227.8 59.5C226.5 59.1 225.2 58.8 223.8 58.5L223.5 60Z" fill="#E6E7E8"/>
<path d="M229.4 61.6C237.2 63.8 244.9 66.6 252.4 70L253 68.6C245.5 65.2 237.7 62.4 229.8 60.1L229.4 61.6Z" fill="#E6E7E8"/>
<path d="M264.2 75.9C271.3 79.8 278.2 84.3 284.7 89.2L285.6 88C279 83 272.1 78.5 264.9 74.6L264.2 75.9Z" fill="#E6E7E8"/>
<path d="M258.8 73C260 73.6 261.2 74.2 262.4 74.9L263.1 73.5C261.9 72.9 260.7 72.2 259.5 71.6L258.8 73Z" fill="#E6E7E8"/>
<path d="M254.2 70.8C255.1 71.2 256 71.7 257 72.1L257.7 70.7C256.8 70.3 255.9 69.8 254.9 69.4L254.2 70.8Z" fill="#E6E7E8"/>
<path d="M313.3 116.6C313.9 117.4 314.6 118.2 315.2 119L316.4 118C315.8 117.2 315.1 116.4 314.5 115.6L313.3 116.6Z" fill="#E6E7E8"/>
<path d="M286.3 90.4C287.1 91 287.9 91.7 288.7 92.3L289.7 91.1C288.9 90.5 288.1 89.8 287.3 89.2L286.3 90.4Z" fill="#E6E7E8"/>
<path d="M350.2 192.3C349.9 190.9 349.7 189.6 349.4 188.3L347.9 188.6C348.2 189.9 348.4 191.3 348.7 192.6L350.2 192.3Z" fill="#E6E7E8"/>
<path d="M337.4 152.2L336 152.8C336.6 154 337.1 155.3 337.7 156.5L339.1 155.9C338.6 154.7 338 153.4 337.4 152.2Z" fill="#E6E7E8"/>
<path d="M347.8 181.2C345.8 173.2 343.1 165.4 339.9 157.8L338.5 158.4C341.6 165.9 344.3 173.7 346.3 181.6L347.8 181.2Z" fill="#E6E7E8"/>
<path d="M321.4 124.6L320.2 125.5C324.9 132.1 329.2 139.1 333 146.4L334.4 145.7C330.5 138.4 326.2 131.3 321.4 124.6Z" fill="#E6E7E8"/>
<path d="M335.2 147.5L333.8 148.2C334.3 149.1 334.7 150 335.1 151L336.5 150.3C336.1 149.4 335.6 148.4 335.2 147.5Z" fill="#E6E7E8"/>
<path d="M317.7 119.7L316.5 120.6C317.3 121.7 318.2 122.8 319 123.9L320.2 123C319.3 121.9 318.5 120.8 317.7 119.7Z" fill="#E6E7E8"/>
<path d="M352.9 215.6C352.6 208.5 351.8 201.3 350.6 194.3L349.1 194.6C350.3 201.5 351.1 208.6 351.4 215.6C347.2 216 343.8 219.6 343.8 224C343.8 228.3 347 231.8 351.1 232.4V266.6H352.6V232.5C357.1 232.3 360.6 228.6 360.6 224.1C360.7 219.6 357.2 215.9 352.9 215.6ZM352.2 230.9C348.4 230.9 345.3 227.8 345.3 224C345.3 220.2 348.4 217.1 352.2 217.1C356 217.1 359.1 220.2 359.1 224C359.1 227.8 356 230.9 352.2 230.9Z" fill="#E6E7E8"/>
<path d="M20.4 215.6C20.7 208.5 21.5 201.5 22.7 194.6L21.2 194.3C20 201.3 19.2 208.4 18.9 215.6C14.5 215.9 11 219.6 11 224C11 228.4 14.4 232 18.7 232.4V266.5H20.2V232.4C24.5 232 27.9 228.4 27.9 224C27.9 219.7 24.6 216.1 20.4 215.6ZM19.5 230.9C15.7 230.9 12.6 227.8 12.6 224C12.6 220.2 15.7 217.1 19.5 217.1C23.3 217.1 26.4 220.2 26.4 224C26.4 227.8 23.3 230.9 19.5 230.9Z" fill="#E6E7E8"/>
<path d="M20.2 285.8H18.7V291.9H20.2V285.8Z" fill="#E6E7E8"/>
<path d="M20.2 268.6H18.7V283.7H20.2V268.6Z" fill="#E6E7E8"/>
<path d="M352.6 268.6H351.1V283.7H352.6V268.6Z" fill="#E6E7E8"/>
<path d="M352.6 285.8H351.1V291.9H352.6V285.8Z" fill="#E6E7E8"/>
<path d="M19.5 225.5C20.3284 225.5 21 224.828 21 224C21 223.172 20.3284 222.5 19.5 222.5C18.6716 222.5 18 223.172 18 224C18 224.828 18.6716 225.5 19.5 225.5Z" fill="#E6E7E8"/>
<path d="M185.9 55.7C186.728 55.7 187.4 55.0284 187.4 54.2C187.4 53.3715 186.728 52.7 185.9 52.7C185.072 52.7 184.4 53.3715 184.4 54.2C184.4 55.0284 185.072 55.7 185.9 55.7Z" fill="#E6E7E8"/>
<path d="M352.2 225.5C353.028 225.5 353.7 224.828 353.7 224C353.7 223.172 353.028 222.5 352.2 222.5C351.372 222.5 350.7 223.172 350.7 224C350.7 224.828 351.372 225.5 352.2 225.5Z" fill="#E6E7E8"/>
<path d="M18.2 188.8C18.5 188.8 18.7 188.6 18.7 188.3V1H352.6V186.6C352.6 186.9 352.8 187.1 353.1 187.1C353.4 187.1 353.6 186.9 353.6 186.6V0.5C353.6 0.2 353.4 0 353.1 0H18.2C17.9 0 17.7 0.2 17.7 0.5V188.3C17.7 188.5 17.9 188.8 18.2 188.8Z" fill="#E6E7E8"/>
<path d="M348.6 170.1C348.6 170.4 348.8 170.6 349.1 170.6C349.4 170.6 349.6 170.4 349.6 170.1V4.5C349.6 4.2 349.4 4 349.1 4H22.2C21.9 4 21.7 4.2 21.7 4.5V171.4C21.7 171.7 21.9 171.9 22.2 171.9C22.5 171.9 22.7 171.7 22.7 171.4V5H348.6V170.1Z" fill="#E6E7E8"/>
<path d="M345.1 159.1C345.4 159.1 345.6 158.9 345.6 158.6V8.5C345.6 8.2 345.4 8 345.1 8H26.2C25.9 8 25.7 8.2 25.7 8.5V159.6C25.7 159.9 25.9 160.1 26.2 160.1C26.5 160.1 26.7 159.9 26.7 159.6V9H344.6V158.6C344.6 158.9 344.8 159.1 345.1 159.1Z" fill="#E6E7E8"/>
<path d="M341.1 150C341.4 150 341.6 149.8 341.6 149.5V12.5C341.6 12.2 341.4 12 341.1 12H30.2C29.9 12 29.7 12.2 29.7 12.5V151C29.7 151.3 29.9 151.5 30.2 151.5C30.5 151.5 30.7 151.3 30.7 151V13H340.6V149.5C340.6 149.8 340.8 150 341.1 150Z" fill="#E6E7E8"/>
<path d="M337.1 142C337.4 142 337.6 141.8 337.6 141.5V16.5C337.6 16.2 337.4 16 337.1 16H34.2C33.9 16 33.7 16.2 33.7 16.5V142C33.7 142.3 33.9 142.5 34.2 142.5C34.5 142.5 34.7 142.3 34.7 142V17H336.6V141.5C336.6 141.8 336.8 142 337.1 142Z" fill="#E6E7E8"/>
<path d="M333.1 134.5C333.4 134.5 333.6 134.3 333.6 134V20.5C333.6 20.2 333.4 20 333.1 20H38.2C37.9 20 37.7 20.2 37.7 20.5V134.7C37.7 135 37.9 135.2 38.2 135.2C38.5 135.2 38.7 135 38.7 134.7V21H332.6V134C332.6 134.3 332.8 134.5 333.1 134.5Z" fill="#E6E7E8"/>
<path d="M329.1 128.1C329.4 128.1 329.6 127.9 329.6 127.6V24.5C329.6 24.2 329.4 24 329.1 24H42.2C41.9 24 41.7 24.2 41.7 24.5V128C41.7 128.3 41.9 128.5 42.2 128.5C42.5 128.5 42.7 128.3 42.7 128V25H328.6V127.6C328.6 127.9 328.8 128.1 329.1 128.1Z" fill="#E6E7E8"/>
<path d="M325.1 122.2C325.4 122.2 325.6 122 325.6 121.7V28.5C325.6 28.2 325.4 28 325.1 28H46.2C45.9 28 45.7 28.2 45.7 28.5V122C45.7 122.3 45.9 122.5 46.2 122.5C46.5 122.5 46.7 122.3 46.7 122V29H324.6V121.7C324.6 122 324.8 122.2 325.1 122.2Z" fill="#E6E7E8"/>
<path d="M321.1 116.8C321.4 116.8 321.6 116.6 321.6 116.3V32.5C321.6 32.2 321.4 32 321.1 32H50.2C49.9 32 49.7 32.2 49.7 32.5V116.9C49.7 117.2 49.9 117.4 50.2 117.4C50.5 117.4 50.7 117.2 50.7 116.9V33H320.6V116.3C320.6 116.6 320.8 116.8 321.1 116.8Z" fill="#E6E7E8"/>
<path d="M317.1 111.9C317.4 111.9 317.6 111.7 317.6 111.4V36.5C317.6 36.2 317.4 36 317.1 36H54.2C53.9 36 53.7 36.2 53.7 36.5V111.9C53.7 112.2 53.9 112.4 54.2 112.4C54.5 112.4 54.7 112.2 54.7 111.9V37H316.6V111.4C316.6 111.7 316.8 111.9 317.1 111.9Z" fill="#E6E7E8"/>
<path d="M58.7 41H312.6V106.8C312.6 107.1 312.8 107.3 313.1 107.3C313.4 107.3 313.6 107.1 313.6 106.8V40.5C313.6 40.2 313.4 40 313.1 40H58.2C57.9 40 57.7 40.2 57.7 40.5V107.2C57.7 107.5 57.9 107.7 58.2 107.7C58.5 107.7 58.7 107.5 58.7 107.2V41Z" fill="#E6E7E8"/>
<path d="M309.1 103.1C309.4 103.1 309.6 102.9 309.6 102.6V44.5C309.6 44.2 309.4 44 309.1 44H194.1C193.8 44 193.6 44.2 193.6 44.5C193.6 44.8 193.8 45 194.1 45H308.6V102.6C308.6 102.9 308.8 103.1 309.1 103.1Z" fill="#E6E7E8"/>
<path d="M178.7 44.5C178.7 44.2 178.5 44 178.2 44H62.2C61.9 44 61.7 44.2 61.7 44.5V102.9C61.7 103.2 61.9 103.4 62.2 103.4C62.5 103.4 62.7 103.2 62.7 102.9V45H178.2C178.5 45 178.7 44.8 178.7 44.5Z" fill="#E6E7E8"/>
<path d="M305.1 98.9C305.4 98.9 305.6 98.7 305.6 98.4V48.5C305.6 48.2 305.4 48 305.1 48H196.9C196.6 48 196.4 48.2 196.4 48.5C196.4 48.8 196.6 49 196.9 49H304.6V98.4C304.6 98.7 304.8 98.9 305.1 98.9Z" fill="#E6E7E8"/>
<path d="M175.3 48.5C175.3 48.2 175.1 48 174.8 48H66.2C65.9 48 65.7 48.2 65.7 48.5V98.8C65.7 99.1 65.9 99.3 66.2 99.3C66.5 99.3 66.7 99.1 66.7 98.8V49H174.8C175.1 49 175.3 48.8 175.3 48.5Z" fill="#E6E7E8"/>
<path d="M300.6 94.7C300.6 95 300.8 95.2 301.1 95.2C301.4 95.2 301.6 95 301.6 94.7V52.5C301.6 52.2 301.4 52 301.1 52H216.8C216.5 52 216.3 52.2 216.3 52.5C216.3 52.8 216.5 53 216.8 53H300.6V94.7Z" fill="#E6E7E8"/>
<path d="M155.4 52.5C155.4 52.2 155.2 52 154.9 52H70.2C69.9 52 69.7 52.2 69.7 52.5V95C69.7 95.3 69.9 95.5 70.2 95.5C70.5 95.5 70.7 95.3 70.7 95V53H154.9C155.2 53 155.4 52.8 155.4 52.5Z" fill="#E6E7E8"/>
<path d="M297.1 91.6C297.4 91.6 297.6 91.4 297.6 91.1V56.5C297.6 56.2 297.4 56 297.1 56H232.8C232.5 56 232.3 56.2 232.3 56.5C232.3 56.8 232.5 57 232.8 57H296.6V91.1C296.6 91.4 296.8 91.6 297.1 91.6Z" fill="#E6E7E8"/>
<path d="M139.4 56.5C139.4 56.2 139.2 56 138.9 56H74.2C73.9 56 73.7 56.2 73.7 56.5V91.5C73.7 91.8 73.9 92 74.2 92C74.5 92 74.7 91.8 74.7 91.5V57H138.9C139.2 57 139.4 56.8 139.4 56.5Z" fill="#E6E7E8"/>
<path d="M293.1 88.3C293.4 88.3 293.6 88.1 293.6 87.8V60.5C293.6 60.2 293.4 60 293.1 60H245C244.7 60 244.5 60.2 244.5 60.5C244.5 60.8 244.7 61 245 61H292.6V87.8C292.6 88 292.8 88.3 293.1 88.3Z" fill="#E6E7E8"/>
<path d="M78.2 60C77.9 60 77.7 60.2 77.7 60.5V88.3C77.7 88.6 77.9 88.8 78.2 88.8C78.5 88.8 78.7 88.6 78.7 88.3V61H126.7C127 61 127.2 60.8 127.2 60.5C127.2 60.2 127 60 126.7 60H78.2Z" fill="#E6E7E8"/>
<path d="M289.1 84.9C289.4 84.9 289.6 84.7 289.6 84.4V64.5C289.6 64.2 289.4 64 289.1 64H254.9C254.6 64 254.4 64.2 254.4 64.5C254.4 64.8 254.6 65 254.9 65H288.6V84.4C288.6 84.7 288.8 84.9 289.1 84.9Z" fill="#E6E7E8"/>
<path d="M82.7 84.9V65H116.8C117.1 65 117.3 64.8 117.3 64.5C117.3 64.2 117.1 64 116.8 64H82.2C81.9 64 81.7 64.2 81.7 64.5V84.9C81.7 85.2 81.9 85.4 82.2 85.4C82.5 85.4 82.7 85.2 82.7 84.9Z" fill="#E6E7E8"/>
<path d="M285.1 68H263.3C263 68 262.8 68.2 262.8 68.5C262.8 68.8 263 69 263.3 69H284.6V81.8C284.6 82.1 284.8 82.3 285.1 82.3C285.4 82.3 285.6 82.1 285.6 81.8V68.5C285.6 68.2 285.4 68 285.1 68Z" fill="#E6E7E8"/>
<path d="M86.7 82V69H108.6C108.9 69 109.1 68.8 109.1 68.5C109.1 68.2 108.9 68 108.6 68H86.2C85.9 68 85.7 68.2 85.7 68.5V82C85.7 82.3 85.9 82.5 86.2 82.5C86.5 82.5 86.7 82.3 86.7 82Z" fill="#E6E7E8"/>
<path d="M281.1 79.8C281.4 79.8 281.6 79.6 281.6 79.3V72.5C281.6 72.2 281.4 72 281.1 72H270.7C270.4 72 270.2 72.2 270.2 72.5C270.2 72.8 270.4 73 270.7 73H280.6V79.3C280.6 79.5 280.8 79.8 281.1 79.8Z" fill="#E6E7E8"/>
<path d="M90.2 72C89.9 72 89.7 72.2 89.7 72.5V79.2C89.7 79.5 89.9 79.7 90.2 79.7C90.5 79.7 90.7 79.5 90.7 79.2V73H101C101.3 73 101.5 72.8 101.5 72.5C101.5 72.2 101.3 72 101 72H90.2Z" fill="#E6E7E8"/>
</g>
<path d="M164.715 174.924V249.942H209.136L215.57 237.112H177.582V174.924H164.715Z" fill="#242424"/>
<path d="M95.1731 174.924H82V249.942H95.1731V174.924Z" fill="#242424"/>
<path d="M128.872 174.924C113.248 174.924 100.534 187.453 100.534 202.849C100.534 214.32 107.427 224.131 117.537 228.358C117.69 228.358 101.76 249.942 101.76 249.942H117.537L131.935 230.622H138.062L144.343 218.094H129.331C120.6 218.094 113.401 210.999 113.401 202.396C113.401 194.547 120.6 187.453 129.331 187.453H146.64V249.791H159.354V174.924H128.872Z" fill="#242424"/>
<path d="M300.276 244.357C301.042 244.357 301.808 244.659 302.421 245.112C303.033 245.716 303.186 246.32 303.186 247.225C303.186 248.131 302.88 248.735 302.421 249.188C301.808 249.791 301.195 249.942 300.276 249.942C299.357 249.942 298.744 249.64 298.132 249.188C297.519 248.584 297.366 247.98 297.366 247.225C297.366 246.471 297.672 245.716 298.132 245.112C298.744 244.508 299.51 244.357 300.276 244.357ZM300.429 249.489C301.195 249.489 301.655 249.338 302.114 248.886C302.574 248.433 302.727 247.98 302.727 247.225C302.727 246.471 302.574 246.018 302.114 245.565C301.655 245.112 301.195 244.961 300.429 244.961C299.663 244.961 299.204 245.112 298.744 245.565C298.285 246.018 298.132 246.622 298.132 247.225C298.132 247.98 298.285 248.433 298.744 248.886C299.051 249.188 299.663 249.489 300.429 249.489ZM299.51 245.716H300.276C301.042 245.716 301.348 246.018 301.348 246.622C301.348 247.074 301.195 247.225 300.889 247.376L301.655 248.584H300.889L300.276 247.527H299.97V248.584H299.357V245.716H299.51ZM300.123 246.169V247.074H300.429C300.736 247.074 300.889 246.923 300.889 246.622C300.889 246.32 300.736 246.169 300.429 246.169H300.123Z" fill="black"/>
<path d="M254.017 198.773L273.47 236.961H259.684H234.563L254.017 198.773ZM254.017 171L213.732 250.093H259.991H294.302L254.017 171Z" fill="#CC9E40"/>
<path d="M263.309 268.046C262.575 267.756 262.281 267.901 261.988 268.769C261.988 268.914 261.841 269.203 261.841 269.348C261.4 270.649 260.96 271.807 260.52 273.253C260.373 272.964 260.373 272.964 260.373 272.819C259.786 271.373 259.198 269.926 258.611 268.48C258.465 268.19 258.318 267.901 258.024 267.901C257.437 267.756 256.997 268.046 256.556 268.335C256.116 268.769 256.409 269.058 256.556 269.492C257.437 271.228 258.171 273.109 259.052 274.844C259.492 275.568 259.345 276.291 258.905 276.87C258.464 277.448 257.877 277.738 257.143 277.882C256.703 277.882 256.409 278.027 256.263 278.461C256.116 278.895 256.116 279.329 256.556 279.618C256.703 279.763 256.997 279.907 257.29 279.907C257.437 279.907 257.731 279.907 257.877 279.907C259.345 279.618 260.52 278.75 260.96 277.304C261.988 274.7 263.015 272.096 264.043 269.637C264.483 268.769 264.19 268.335 263.309 268.046Z" fill="#242424"/>
<path d="M185.653 270.939C185.506 271.083 185.359 271.083 185.359 271.083C185.359 271.083 185.359 269.348 185.359 268.48C184.772 268.48 184.185 268.48 183.598 268.48C183.598 270.939 183.598 273.398 183.598 275.857H184.919C184.919 275.857 185.359 275.568 185.359 275.278C186.827 276.291 188.442 275.857 188.736 274.121C188.883 273.398 188.883 272.53 188.589 271.662C188.149 270.505 186.974 270.215 185.653 270.939ZM186.093 274.555C185.506 274.555 185.359 273.977 185.359 273.253V273.109C185.359 272.385 185.653 272.096 186.093 272.096C186.534 272.096 186.827 272.53 186.827 273.109C186.827 274.266 186.681 274.555 186.093 274.555Z" fill="#242424"/>
<path d="M283.567 268.914C283.42 269.058 283.42 267.467 283.42 266.888C283.42 266.165 283.42 265.442 283.42 264.719C283.42 263.706 283.126 263.417 282.246 263.417C281.365 263.417 281.071 263.706 281.071 264.719C281.071 266.888 281.071 268.914 281.071 271.083C281.071 272.385 281.071 273.832 281.071 275.134C281.071 275.857 281.512 276.291 282.246 276.146C282.833 276.146 283.126 275.857 283.273 275.278C285.328 277.304 287.677 276.291 288.411 273.977C288.705 272.819 288.705 271.517 288.411 270.36C287.971 267.901 285.182 267.033 283.567 268.914ZM286.503 272.964C286.503 273.687 285.769 274.266 285.035 274.266C284.301 274.266 283.567 273.543 283.567 272.819C283.567 272.53 283.567 271.517 283.567 271.228C283.714 270.505 284.301 269.926 285.035 269.926C285.769 269.926 286.503 270.505 286.503 271.228C286.503 271.807 286.503 272.385 286.503 272.964Z" fill="#242424"/>
<path d="M254.061 271.517C253.473 271.373 253.033 271.228 252.446 271.083C252.152 270.939 251.565 270.794 251.712 270.36C251.859 269.926 252.299 269.781 252.739 269.781C253.18 269.781 253.767 269.926 254.207 270.071C254.941 270.36 255.235 270.215 255.529 269.637C255.822 269.058 255.675 268.769 254.941 268.48C253.914 268.046 252.739 268.046 251.712 268.335C251.418 268.48 250.978 268.624 250.684 268.769C249.657 269.637 249.216 271.807 251.271 272.675C251.859 272.964 252.593 273.109 253.327 273.398C253.767 273.543 254.061 273.832 254.061 274.266C253.914 274.7 253.62 274.844 253.18 274.844C252.446 274.989 251.712 274.7 251.125 274.266C250.391 273.832 249.803 274.266 249.803 274.989C249.803 275.278 250.097 275.712 250.391 275.857C251.125 276.436 252.299 276.58 252.886 276.58C253.327 276.58 253.62 276.58 254.061 276.436C255.382 276.146 256.116 275.423 256.116 274.266C255.822 272.675 255.382 271.951 254.061 271.517Z" fill="#242424"/>
<path d="M294.283 271.517C293.696 271.373 293.255 271.228 292.668 271.083C292.375 270.939 291.787 270.794 291.934 270.36C292.081 269.926 292.521 269.781 292.962 269.781C293.402 269.781 293.989 269.926 294.43 270.071C295.164 270.36 295.457 270.215 295.751 269.637C296.045 269.058 295.898 268.769 295.164 268.48C294.136 268.046 292.962 268.046 291.934 268.335C291.641 268.48 291.2 268.624 290.907 268.769C289.879 269.637 289.439 271.807 291.494 272.675C292.081 272.964 292.815 273.109 293.549 273.398C293.989 273.543 294.283 273.832 294.283 274.266C294.136 274.7 293.843 274.844 293.402 274.844C292.668 274.989 291.934 274.7 291.347 274.266C290.613 273.832 290.026 274.266 290.026 274.989C290.026 275.278 290.319 275.712 290.613 275.857C291.347 276.436 292.521 276.58 293.109 276.58C293.549 276.58 293.843 276.58 294.283 276.436C295.604 276.146 296.338 275.423 296.338 274.266C296.191 272.675 295.604 271.951 294.283 271.517Z" fill="#242424"/>
<path d="M270.062 263.272C269.328 263.272 269.034 263.561 269.034 264.429C269.034 266.165 269.034 267.901 269.034 269.637C269.034 271.373 269.034 273.109 269.034 274.989C269.034 275.712 269.328 276.146 270.208 276.146C270.942 276.146 271.383 275.857 271.383 274.989C271.383 271.517 271.383 268.046 271.383 264.429C271.236 263.561 270.795 263.272 270.062 263.272Z" fill="#242424"/>
<path d="M192.259 273.976C191.818 272.819 191.525 271.807 191.231 270.649C190.497 270.649 189.91 270.649 189.323 270.649C189.47 270.939 189.47 271.228 189.617 271.517C190.057 272.675 190.644 273.976 191.084 275.134C191.525 276.291 191.378 276.87 189.91 276.87H189.763C189.763 277.304 189.763 277.738 189.763 278.171C191.378 278.171 192.406 278.027 192.993 276.58C193.58 275.134 194.02 273.687 194.608 272.385C194.754 271.807 195.048 271.373 195.195 270.794C194.461 270.794 193.874 270.794 193.286 270.794C192.993 271.807 192.552 272.819 192.259 273.976Z" fill="#242424"/>
<path d="M213.398 271.951C213.251 271.807 212.957 271.807 212.811 271.807V271.662C212.811 271.662 212.811 271.517 212.957 271.662C213.251 271.662 213.545 271.662 213.838 271.662C213.985 271.662 213.985 271.662 213.985 271.517C213.985 271.373 213.985 271.373 213.838 271.373C213.545 271.373 213.251 271.373 212.957 271.373C212.957 271.228 212.957 271.228 212.811 271.083C212.957 271.083 213.104 271.083 213.251 270.939C213.691 270.794 213.985 270.505 213.985 270.215C213.985 270.071 213.985 270.071 213.838 270.071C213.691 270.071 213.691 270.071 213.691 270.215C213.691 270.36 213.544 270.505 213.398 270.649C213.251 270.794 212.957 270.794 212.811 270.794C212.957 270.505 212.957 270.36 212.957 270.071C212.957 270.071 212.957 270.071 212.957 269.926C213.104 269.637 213.104 269.492 213.104 269.203C213.104 269.058 212.957 269.058 212.957 269.058C212.811 269.058 212.811 269.203 212.811 269.203C212.811 269.348 212.811 269.492 212.811 269.492C212.664 269.348 212.37 269.348 212.077 269.492C212.077 269.348 212.077 269.203 212.077 269.203C212.077 269.058 212.077 269.058 211.93 269.058C211.783 269.058 211.783 269.058 211.783 269.203C211.783 269.348 211.783 269.637 211.783 269.782C211.783 269.926 211.93 270.071 211.93 270.215C211.93 270.36 211.93 270.505 212.077 270.649C211.93 270.649 211.783 270.649 211.636 270.649C211.343 270.505 211.196 270.36 211.196 270.071C211.196 269.926 211.196 269.926 211.049 269.926C210.902 269.926 210.902 269.926 210.902 270.071C210.902 270.215 210.902 270.36 211.049 270.505C211.196 270.794 211.489 270.794 211.783 270.939C211.93 270.939 211.93 270.939 212.077 270.939C212.077 271.083 211.93 271.083 211.93 271.228C211.93 271.228 211.93 271.228 211.783 271.228C211.489 271.228 211.196 271.228 210.902 271.228C210.755 271.228 210.755 271.228 210.755 271.373C210.755 271.517 210.755 271.517 210.902 271.517C211.196 271.517 211.489 271.517 211.783 271.517C211.93 271.517 211.93 271.517 211.93 271.662V271.807C211.783 271.807 211.636 271.807 211.343 271.951C211.049 272.096 210.755 272.385 210.755 272.819C210.755 272.964 210.755 272.964 210.902 272.964C211.049 272.964 211.049 272.964 211.049 272.819C211.049 272.675 211.049 272.53 211.196 272.385C211.343 272.241 211.636 272.096 211.93 272.096C211.93 272.096 211.783 272.096 211.783 272.241C211.343 272.675 211.196 273.687 211.783 274.266C212.077 274.555 212.37 274.7 212.664 274.555C212.957 274.555 213.104 274.266 213.251 274.121C213.398 273.832 213.544 273.543 213.398 273.109C213.398 272.819 213.251 272.53 212.957 272.241H213.104C213.251 272.241 213.398 272.385 213.545 272.385C213.691 272.53 213.691 272.675 213.691 272.819C213.691 272.964 213.691 272.964 213.838 272.964C213.985 272.964 213.985 272.964 213.985 272.819C213.985 272.819 213.985 272.819 213.985 272.675C213.985 272.385 213.838 272.096 213.398 271.951Z" fill="#242424"/>
<path d="M212.37 258.209C206.351 258.209 201.36 263.127 201.36 269.058C201.36 274.989 206.351 279.907 212.37 279.907C218.389 279.907 223.38 274.989 223.38 269.058C223.38 263.127 218.389 258.209 212.37 258.209ZM217.068 275.134C216.627 275.423 216.187 275.712 215.746 275.712C214.572 275.712 213.398 275.712 212.37 275.712C211.783 275.712 211.196 275.712 210.462 275.712C210.021 275.712 209.434 275.712 208.994 275.712C208.113 275.712 207.526 275.278 207.232 274.555C206.939 273.832 206.939 273.253 207.379 272.675C208.26 271.373 209.287 269.926 210.168 268.624C210.315 268.48 210.315 268.335 210.462 268.19C210.462 268.19 210.462 268.19 210.462 268.046C210.462 267.033 210.462 265.876 210.462 264.863C210.462 264.863 210.462 264.863 210.462 264.719C209.728 264.429 209.434 263.706 209.728 262.983C210.021 262.549 210.315 262.259 210.902 262.259C211.93 262.259 212.957 262.259 214.132 262.259C214.719 262.259 215.306 262.693 215.453 263.272C215.6 263.851 215.306 264.429 214.719 264.719C214.719 264.719 214.719 264.719 214.719 264.863C214.719 265.876 214.719 267.033 214.719 268.046C214.719 268.046 214.719 268.046 214.719 268.19C215.746 269.637 216.774 271.083 217.655 272.53C217.802 272.819 217.948 273.109 218.095 273.398C217.802 274.121 217.655 274.7 217.068 275.134Z" fill="#242424"/>
<path d="M247.895 269.637C248.482 269.637 248.776 269.348 248.776 268.914C248.776 268.335 248.482 268.046 247.895 268.046C247.308 268.046 246.868 268.046 246.134 268.046C246.134 267.322 246.134 265.587 246.134 265.297C246.134 264.719 245.693 264.429 244.959 264.429C244.372 264.429 244.078 264.574 243.932 265.008C243.785 265.153 243.932 265.442 243.932 265.731C243.932 265.876 243.932 270.794 243.932 273.253C243.932 273.543 243.932 273.832 244.078 274.121C244.225 275.134 244.812 275.712 245.693 276.002C246.427 276.146 247.161 276.146 247.895 276.146C248.482 276.146 248.776 275.712 248.776 275.278C248.776 274.7 248.482 274.411 247.895 274.411C247.602 274.411 247.308 274.411 247.014 274.411C246.574 274.411 246.28 274.266 246.28 273.687C246.28 272.385 246.28 271.083 246.28 269.782C246.721 269.637 247.308 269.637 247.895 269.637Z" fill="#242424"/>
<path d="M233.069 270.071C232.335 267.901 229.692 267.033 227.05 268.624C226.609 268.914 226.609 269.348 226.903 269.782C227.197 270.216 227.49 270.216 227.931 270.071C228.371 269.926 228.958 269.782 229.399 269.782C230.426 269.782 231.013 270.36 230.867 271.517C230.279 271.517 229.986 271.517 229.252 271.517C228.665 271.517 227.784 271.807 227.197 272.096C226.316 272.53 225.875 273.543 226.169 274.7C226.463 275.712 227.197 276.291 228.224 276.291C229.399 276.436 230.133 275.857 231.013 275.134V275.278C231.013 275.857 231.307 276.146 232.041 276.146C232.775 276.146 233.215 275.857 233.215 275.278C233.215 275.134 233.215 275.134 233.215 274.989C233.215 274.845 233.215 274.845 233.215 274.7C233.215 273.398 233.215 272.241 233.215 270.939C233.215 270.794 233.069 270.505 233.069 270.071ZM229.986 274.411C229.399 274.7 228.811 274.555 228.518 274.121C228.224 273.543 228.518 272.964 229.105 272.819C229.692 272.675 230.279 272.675 230.867 272.675C231.013 273.543 230.573 274.121 229.986 274.411Z" fill="#242424"/>
<path d="M279.457 270.071C278.723 267.901 276.08 267.033 273.438 268.624C272.997 268.914 272.997 269.348 273.291 269.782C273.585 270.216 273.878 270.216 274.319 270.071C274.759 269.926 275.346 269.782 275.787 269.782C276.814 269.782 277.401 270.36 277.255 271.517C276.667 271.517 276.374 271.517 275.64 271.517C275.053 271.517 274.172 271.807 273.585 272.096C272.704 272.53 272.263 273.543 272.557 274.7C272.851 275.712 273.585 276.291 274.612 276.291C275.787 276.436 276.521 275.857 277.401 275.134V275.278C277.401 275.857 277.695 276.146 278.429 276.146C279.163 276.146 279.603 275.857 279.603 275.278C279.603 275.134 279.603 275.134 279.603 274.989C279.603 274.845 279.603 274.845 279.603 274.7C279.603 273.398 279.603 272.241 279.603 270.939C279.603 270.794 279.457 270.505 279.457 270.071ZM276.374 274.411C275.787 274.7 275.199 274.555 274.906 274.121C274.612 273.543 274.906 272.964 275.493 272.819C276.08 272.675 276.667 272.675 277.255 272.675C277.401 273.543 276.961 274.121 276.374 274.411Z" fill="#242424"/>
<path d="M239.674 267.901C238.647 267.756 237.766 268.046 237.032 268.914V268.769C237.032 268.19 236.592 267.901 235.858 268.046C235.124 268.046 234.83 268.335 234.83 268.914C234.83 269.058 234.83 269.348 234.83 269.492C234.83 271.228 234.83 272.819 234.83 274.555C234.83 274.7 234.83 274.989 234.83 275.134C234.83 275.712 235.124 276.002 235.858 276.002C236.592 276.002 237.032 275.712 237.032 275.134C237.032 274.844 237.032 274.7 237.032 274.411C237.032 273.398 237.032 272.241 237.032 271.228C237.032 270.649 237.326 270.216 237.913 269.926C238.353 269.637 238.794 269.782 239.234 270.071C239.674 270.36 239.968 270.939 239.968 271.517C239.968 272.675 239.968 273.977 239.968 275.134C239.968 275.712 240.408 276.002 240.996 276.002C241.73 276.002 242.17 275.712 242.17 275.134C242.17 273.687 242.17 272.096 242.17 270.649C242.17 269.348 240.996 268.19 239.674 267.901Z" fill="#242424"/>
<path d="M301.476 265.587C301.476 264.863 301.036 264.429 300.155 264.429H299.127V267.901H299.861V266.599H300.155L300.889 267.901H301.77L300.889 266.454C301.329 266.31 301.476 266.021 301.476 265.587ZM300.302 266.021H299.861V265.008H300.155C300.449 265.008 300.742 265.153 300.742 265.442C300.742 265.876 300.595 266.021 300.302 266.021Z" fill="#242424"/>
<path d="M302.504 264.14C301.916 263.561 301.182 263.272 300.302 263.272C299.421 263.272 298.687 263.561 298.1 264.14C297.513 264.719 297.219 265.442 297.219 266.31C297.219 267.178 297.513 267.901 298.1 268.48C298.687 269.058 299.421 269.348 300.302 269.348C301.182 269.348 301.916 269.058 302.504 268.48C303.091 267.901 303.384 267.178 303.384 266.31C303.384 265.442 303.091 264.719 302.504 264.14ZM302.063 268.046C301.623 268.48 301.036 268.769 300.302 268.769C299.568 268.769 298.981 268.48 298.54 268.046C298.1 267.612 297.806 267.033 297.806 266.31C297.806 265.587 298.1 265.008 298.54 264.574C298.981 264.14 299.568 263.851 300.302 263.851C301.036 263.851 301.623 264.14 302.063 264.574C302.504 265.008 302.797 265.587 302.797 266.31C302.797 267.033 302.504 267.612 302.063 268.046Z" fill="#242424"/>
<defs>
<clipPath id="clip0">
<rect width="349.7" height="291.8" fill="white" transform="translate(11)"/>
</clipPath>
</defs>
</svg>
