<svg width="334" height="40" viewBox="0 0 334 40" fill="none" xmlns="http://www.w3.org/2000/svg">
<rect width="334" height="40" rx="3" fill="#3B5998"/>
<path d="M80.892 16.964C80.856 16.916 80.73 16.826 80.514 16.694C80.298 16.562 80.028 16.424 79.704 16.28C79.38 16.136 79.026 16.01 78.642 15.902C78.258 15.794 77.874 15.74 77.49 15.74C76.434 15.74 75.906 16.094 75.906 16.802C75.906 17.018 75.96 17.198 76.068 17.342C76.188 17.486 76.356 17.618 76.572 17.738C76.8 17.846 77.082 17.948 77.418 18.044C77.754 18.14 78.144 18.248 78.588 18.368C79.2 18.536 79.752 18.722 80.244 18.926C80.736 19.118 81.15 19.364 81.486 19.664C81.834 19.952 82.098 20.306 82.278 20.726C82.47 21.146 82.566 21.65 82.566 22.238C82.566 22.958 82.428 23.57 82.152 24.074C81.888 24.566 81.534 24.968 81.09 25.28C80.646 25.58 80.136 25.802 79.56 25.946C78.984 26.078 78.39 26.144 77.778 26.144C77.31 26.144 76.83 26.108 76.338 26.036C75.846 25.964 75.366 25.862 74.898 25.73C74.43 25.586 73.974 25.418 73.53 25.226C73.098 25.034 72.696 24.812 72.324 24.56L73.62 21.986C73.668 22.046 73.824 22.16 74.088 22.328C74.352 22.496 74.676 22.664 75.06 22.832C75.456 23 75.894 23.15 76.374 23.282C76.854 23.414 77.34 23.48 77.832 23.48C78.876 23.48 79.398 23.162 79.398 22.526C79.398 22.286 79.32 22.088 79.164 21.932C79.008 21.776 78.792 21.638 78.516 21.518C78.24 21.386 77.91 21.266 77.526 21.158C77.154 21.05 76.746 20.93 76.302 20.798C75.714 20.618 75.204 20.426 74.772 20.222C74.34 20.006 73.98 19.76 73.692 19.484C73.416 19.208 73.206 18.89 73.062 18.53C72.93 18.17 72.864 17.75 72.864 17.27C72.864 16.598 72.99 16.004 73.242 15.488C73.494 14.972 73.836 14.54 74.268 14.192C74.7 13.832 75.198 13.562 75.762 13.382C76.338 13.202 76.944 13.112 77.58 13.112C78.024 13.112 78.462 13.154 78.894 13.238C79.326 13.322 79.74 13.43 80.136 13.562C80.532 13.694 80.898 13.844 81.234 14.012C81.582 14.18 81.9 14.348 82.188 14.516L80.892 16.964ZM84.0642 26V16.55H86.9442V26H84.0642ZM84.0642 15.47V12.86H86.9442V15.47H84.0642ZM92.5878 26.036C91.9638 26.036 91.3938 25.91 90.8778 25.658C90.3618 25.406 89.9178 25.064 89.5458 24.632C89.1858 24.2 88.9038 23.696 88.6998 23.12C88.4958 22.544 88.3938 21.926 88.3938 21.266C88.3938 20.57 88.5018 19.928 88.7178 19.34C88.9338 18.74 89.2338 18.224 89.6178 17.792C90.0018 17.348 90.4638 17 91.0038 16.748C91.5438 16.496 92.1378 16.37 92.7858 16.37C93.5058 16.37 94.1298 16.526 94.6578 16.838C95.1978 17.138 95.6298 17.558 95.9538 18.098V16.55H98.4558V25.352C98.4558 26.072 98.3178 26.72 98.0418 27.296C97.7778 27.872 97.4058 28.358 96.9258 28.754C96.4458 29.162 95.8698 29.474 95.1978 29.69C94.5258 29.906 93.7878 30.014 92.9838 30.014C91.9638 30.014 91.0938 29.852 90.3738 29.528C89.6538 29.204 89.0238 28.736 88.4838 28.124L90.0318 26.558C90.3798 26.954 90.8118 27.266 91.3278 27.494C91.8438 27.734 92.3958 27.854 92.9838 27.854C93.3318 27.854 93.6618 27.806 93.9738 27.71C94.2858 27.614 94.5618 27.464 94.8018 27.26C95.0418 27.068 95.2278 26.81 95.3598 26.486C95.5038 26.174 95.5758 25.796 95.5758 25.352V24.434C95.2878 24.962 94.8738 25.364 94.3338 25.64C93.7938 25.904 93.2118 26.036 92.5878 26.036ZM93.5778 23.75C94.0218 23.75 94.4178 23.63 94.7658 23.39C95.1138 23.138 95.3838 22.82 95.5758 22.436V20.456C95.3838 19.952 95.0898 19.556 94.6938 19.268C94.2978 18.968 93.8778 18.818 93.4338 18.818C93.1218 18.818 92.8338 18.89 92.5698 19.034C92.3178 19.166 92.0958 19.352 91.9038 19.592C91.7238 19.82 91.5798 20.09 91.4718 20.402C91.3758 20.702 91.3278 21.014 91.3278 21.338C91.3278 21.686 91.3818 22.01 91.4898 22.31C91.6098 22.598 91.7718 22.85 91.9758 23.066C92.1798 23.282 92.4138 23.45 92.6778 23.57C92.9538 23.69 93.2538 23.75 93.5778 23.75ZM109.537 26H106.657V20.69C106.657 20.066 106.537 19.616 106.297 19.34C106.069 19.052 105.763 18.908 105.379 18.908C105.175 18.908 104.971 18.95 104.767 19.034C104.563 19.118 104.365 19.238 104.173 19.394C103.981 19.538 103.807 19.712 103.651 19.916C103.507 20.12 103.393 20.342 103.309 20.582V26H100.429V16.55H103.021V18.134C103.369 17.57 103.861 17.138 104.497 16.838C105.133 16.526 105.865 16.37 106.693 16.37C107.305 16.37 107.797 16.484 108.169 16.712C108.541 16.928 108.829 17.216 109.033 17.576C109.237 17.924 109.369 18.308 109.429 18.728C109.501 19.148 109.537 19.556 109.537 19.952V26ZM115.886 26V13.22H118.838V26H115.886ZM130.157 26H127.277V20.69C127.277 20.066 127.157 19.616 126.917 19.34C126.689 19.052 126.383 18.908 125.999 18.908C125.795 18.908 125.591 18.95 125.387 19.034C125.183 19.118 124.985 19.238 124.793 19.394C124.601 19.538 124.427 19.712 124.271 19.916C124.127 20.12 124.013 20.342 123.929 20.582V26H121.049V16.55H123.641V18.134C123.989 17.57 124.481 17.138 125.117 16.838C125.753 16.526 126.485 16.37 127.313 16.37C127.925 16.37 128.417 16.484 128.789 16.712C129.161 16.928 129.449 17.216 129.653 17.576C129.857 17.924 129.989 18.308 130.049 18.728C130.121 19.148 130.157 19.556 130.157 19.952V26ZM147.425 16.55H150.161L146.255 26H143.897L142.439 22.112L140.981 26H138.623L134.717 16.55H137.435L140.009 23.336L140.891 20.762L139.217 16.55H141.521L142.439 19.394L143.339 16.55H145.643L143.987 20.762L144.869 23.336L147.425 16.55ZM151.072 26V16.55H153.952V26H151.072ZM151.072 15.47V12.86H153.952V15.47H151.072ZM162.044 25.496C161.648 25.664 161.192 25.82 160.676 25.964C160.172 26.108 159.662 26.18 159.146 26.18C158.786 26.18 158.444 26.132 158.12 26.036C157.808 25.952 157.532 25.814 157.292 25.622C157.052 25.418 156.86 25.154 156.716 24.83C156.584 24.506 156.518 24.116 156.518 23.66V18.728H155.312V16.55H156.518V13.544H159.398V16.55H161.324V18.728H159.398V22.67C159.398 22.982 159.476 23.21 159.632 23.354C159.788 23.486 159.986 23.552 160.226 23.552C160.442 23.552 160.664 23.516 160.892 23.444C161.12 23.372 161.318 23.294 161.486 23.21L162.044 25.496ZM172.274 26H169.394V20.69C169.394 20.078 169.274 19.628 169.034 19.34C168.794 19.052 168.464 18.908 168.044 18.908C167.876 18.908 167.69 18.95 167.486 19.034C167.294 19.106 167.102 19.22 166.91 19.376C166.73 19.52 166.562 19.694 166.406 19.898C166.25 20.102 166.13 20.33 166.046 20.582V26H163.166V12.86H166.046V18.134C166.394 17.57 166.85 17.138 167.414 16.838C167.99 16.526 168.62 16.37 169.304 16.37C169.94 16.37 170.45 16.484 170.834 16.712C171.23 16.928 171.53 17.21 171.734 17.558C171.95 17.894 172.094 18.278 172.166 18.71C172.238 19.13 172.274 19.544 172.274 19.952V26ZM178.622 26V13.22H187.298V15.812H181.574V18.566H186.29V20.96H181.574V26H178.622ZM189.789 26.18C189.321 26.18 188.883 26.108 188.475 25.964C188.079 25.808 187.737 25.598 187.449 25.334C187.161 25.058 186.933 24.74 186.765 24.38C186.597 24.008 186.513 23.606 186.513 23.174C186.513 22.706 186.609 22.28 186.801 21.896C187.005 21.512 187.287 21.182 187.647 20.906C188.007 20.63 188.433 20.414 188.925 20.258C189.417 20.102 189.963 20.024 190.563 20.024C190.959 20.024 191.343 20.06 191.715 20.132C192.087 20.192 192.411 20.288 192.687 20.42V19.988C192.687 18.896 192.057 18.35 190.797 18.35C190.281 18.35 189.789 18.44 189.321 18.62C188.853 18.788 188.361 19.046 187.845 19.394L186.999 17.594C187.623 17.186 188.271 16.88 188.943 16.676C189.615 16.472 190.329 16.37 191.085 16.37C192.513 16.37 193.617 16.706 194.397 17.378C195.177 18.05 195.567 19.034 195.567 20.33V22.76C195.567 23.048 195.609 23.252 195.693 23.372C195.789 23.48 195.951 23.546 196.179 23.57V26C195.927 26.06 195.699 26.096 195.495 26.108C195.291 26.132 195.105 26.144 194.937 26.144C194.397 26.144 193.989 26.042 193.713 25.838C193.437 25.622 193.263 25.322 193.191 24.938L193.137 24.506C192.717 25.046 192.213 25.46 191.625 25.748C191.049 26.036 190.437 26.18 189.789 26.18ZM190.635 24.11C190.947 24.11 191.247 24.056 191.535 23.948C191.835 23.84 192.081 23.696 192.273 23.516C192.549 23.3 192.687 23.072 192.687 22.832V21.932C192.435 21.836 192.159 21.764 191.859 21.716C191.571 21.656 191.301 21.626 191.049 21.626C190.521 21.626 190.083 21.746 189.735 21.986C189.399 22.226 189.231 22.538 189.231 22.922C189.231 23.27 189.363 23.558 189.627 23.786C189.891 24.002 190.227 24.11 190.635 24.11ZM197.096 21.266C197.096 20.618 197.21 20 197.438 19.412C197.666 18.812 197.996 18.29 198.428 17.846C198.86 17.39 199.388 17.03 200.012 16.766C200.648 16.502 201.368 16.37 202.172 16.37C203.264 16.37 204.182 16.604 204.926 17.072C205.67 17.528 206.228 18.128 206.6 18.872L203.792 19.718C203.42 19.118 202.874 18.818 202.154 18.818C201.554 18.818 201.05 19.04 200.642 19.484C200.246 19.928 200.048 20.522 200.048 21.266C200.048 21.638 200.102 21.98 200.21 22.292C200.318 22.592 200.468 22.85 200.66 23.066C200.852 23.282 201.074 23.45 201.326 23.57C201.59 23.69 201.866 23.75 202.154 23.75C202.514 23.75 202.844 23.666 203.144 23.498C203.444 23.318 203.666 23.09 203.81 22.814L206.618 23.678C206.27 24.41 205.712 25.01 204.944 25.478C204.188 25.946 203.264 26.18 202.172 26.18C201.38 26.18 200.666 26.048 200.03 25.784C199.406 25.508 198.872 25.148 198.428 24.704C197.996 24.248 197.666 23.726 197.438 23.138C197.21 22.538 197.096 21.914 197.096 21.266ZM212.35 26.18C211.558 26.18 210.844 26.054 210.208 25.802C209.584 25.538 209.05 25.184 208.606 24.74C208.174 24.296 207.844 23.786 207.616 23.21C207.388 22.622 207.274 22.01 207.274 21.374C207.274 20.69 207.388 20.048 207.616 19.448C207.844 18.836 208.174 18.302 208.606 17.846C209.038 17.39 209.566 17.03 210.19 16.766C210.826 16.502 211.546 16.37 212.35 16.37C213.154 16.37 213.868 16.502 214.492 16.766C215.116 17.03 215.644 17.39 216.076 17.846C216.508 18.29 216.832 18.806 217.048 19.394C217.276 19.982 217.39 20.6 217.39 21.248C217.39 21.416 217.384 21.584 217.372 21.752C217.36 21.908 217.342 22.046 217.318 22.166H210.334C210.382 22.802 210.61 23.288 211.018 23.624C211.438 23.948 211.912 24.11 212.44 24.11C212.86 24.11 213.262 24.008 213.646 23.804C214.042 23.6 214.306 23.324 214.438 22.976L216.886 23.66C216.514 24.404 215.938 25.01 215.158 25.478C214.378 25.946 213.442 26.18 212.35 26.18ZM214.348 20.384C214.288 19.784 214.072 19.31 213.7 18.962C213.328 18.614 212.866 18.44 212.314 18.44C211.75 18.44 211.282 18.62 210.91 18.98C210.55 19.328 210.34 19.796 210.28 20.384H214.348ZM224.365 26.18C223.645 26.18 223.015 26.03 222.475 25.73C221.935 25.418 221.509 24.986 221.197 24.434V26H218.695V12.86H221.575V18.098C221.887 17.558 222.301 17.138 222.817 16.838C223.345 16.526 223.963 16.37 224.671 16.37C225.271 16.37 225.823 16.502 226.327 16.766C226.831 17.018 227.263 17.366 227.623 17.81C227.983 18.254 228.265 18.782 228.469 19.394C228.673 19.994 228.775 20.636 228.775 21.32C228.775 22.004 228.661 22.646 228.433 23.246C228.217 23.834 227.911 24.35 227.515 24.794C227.119 25.226 226.651 25.568 226.111 25.82C225.571 26.06 224.989 26.18 224.365 26.18ZM223.555 23.75C223.891 23.75 224.197 23.69 224.473 23.57C224.749 23.438 224.983 23.264 225.175 23.048C225.379 22.832 225.535 22.58 225.643 22.292C225.763 21.992 225.823 21.668 225.823 21.32C225.823 20.984 225.769 20.666 225.661 20.366C225.553 20.054 225.403 19.784 225.211 19.556C225.031 19.328 224.809 19.148 224.545 19.016C224.281 18.884 223.999 18.818 223.699 18.818C223.243 18.818 222.823 18.974 222.439 19.286C222.067 19.598 221.779 19.988 221.575 20.456V22.436C221.767 22.844 222.043 23.168 222.403 23.408C222.775 23.636 223.159 23.75 223.555 23.75ZM234.709 26.18C233.905 26.18 233.185 26.048 232.549 25.784C231.925 25.52 231.397 25.166 230.965 24.722C230.533 24.266 230.203 23.744 229.975 23.156C229.759 22.556 229.651 21.932 229.651 21.284C229.651 20.636 229.759 20.018 229.975 19.43C230.203 18.83 230.533 18.308 230.965 17.864C231.397 17.408 231.925 17.048 232.549 16.784C233.185 16.508 233.905 16.37 234.709 16.37C235.513 16.37 236.227 16.508 236.851 16.784C237.475 17.048 238.003 17.408 238.435 17.864C238.867 18.308 239.197 18.83 239.425 19.43C239.653 20.018 239.767 20.636 239.767 21.284C239.767 21.932 239.653 22.556 239.425 23.156C239.209 23.744 238.885 24.266 238.453 24.722C238.021 25.166 237.487 25.52 236.851 25.784C236.227 26.048 235.513 26.18 234.709 26.18ZM232.603 21.284C232.603 22.028 232.801 22.628 233.197 23.084C233.593 23.528 234.097 23.75 234.709 23.75C235.009 23.75 235.285 23.69 235.537 23.57C235.789 23.45 236.005 23.282 236.185 23.066C236.377 22.85 236.527 22.592 236.635 22.292C236.743 21.98 236.797 21.644 236.797 21.284C236.797 20.54 236.599 19.946 236.203 19.502C235.807 19.046 235.309 18.818 234.709 18.818C234.409 18.818 234.127 18.878 233.863 18.998C233.611 19.118 233.389 19.286 233.197 19.502C233.017 19.718 232.873 19.982 232.765 20.294C232.657 20.594 232.603 20.924 232.603 21.284ZM245.695 26.18C244.891 26.18 244.171 26.048 243.535 25.784C242.911 25.52 242.383 25.166 241.951 24.722C241.519 24.266 241.189 23.744 240.961 23.156C240.745 22.556 240.637 21.932 240.637 21.284C240.637 20.636 240.745 20.018 240.961 19.43C241.189 18.83 241.519 18.308 241.951 17.864C242.383 17.408 242.911 17.048 243.535 16.784C244.171 16.508 244.891 16.37 245.695 16.37C246.499 16.37 247.213 16.508 247.837 16.784C248.461 17.048 248.989 17.408 249.421 17.864C249.853 18.308 250.183 18.83 250.411 19.43C250.639 20.018 250.753 20.636 250.753 21.284C250.753 21.932 250.639 22.556 250.411 23.156C250.195 23.744 249.871 24.266 249.439 24.722C249.007 25.166 248.473 25.52 247.837 25.784C247.213 26.048 246.499 26.18 245.695 26.18ZM243.589 21.284C243.589 22.028 243.787 22.628 244.183 23.084C244.579 23.528 245.083 23.75 245.695 23.75C245.995 23.75 246.271 23.69 246.523 23.57C246.775 23.45 246.991 23.282 247.171 23.066C247.363 22.85 247.513 22.592 247.621 22.292C247.729 21.98 247.783 21.644 247.783 21.284C247.783 20.54 247.585 19.946 247.189 19.502C246.793 19.046 246.295 18.818 245.695 18.818C245.395 18.818 245.113 18.878 244.849 18.998C244.597 19.118 244.375 19.286 244.183 19.502C244.003 19.718 243.859 19.982 243.751 20.294C243.643 20.594 243.589 20.924 243.589 21.284ZM258.535 26L256.069 22.202L255.061 23.246V26H252.181V12.86H255.061V20.474L258.247 16.55H261.307L257.905 20.618L261.595 26H258.535Z" fill="white"/>
<path d="M32.7999 14.4H34.7999C35.0207 14.4 35.1999 14.2208 35.1999 14V11.3052C35.1999 11.0956 35.0387 10.9212 34.8299 10.9064C34.1935 10.8612 32.9503 10.8 32.0563 10.8C29.5999 10.8 27.9999 12.272 27.9999 14.9472V17.6H25.1999C24.9791 17.6 24.7999 17.7792 24.7999 18V20.8C24.7999 21.0208 24.9791 21.2 25.1999 21.2H27.9999V28.8C27.9999 29.0208 28.1791 29.2 28.3999 29.2H31.1999C31.4207 29.2 31.5999 29.0208 31.5999 28.8V21.2H34.4887C34.6927 21.2 34.8639 21.0468 34.8863 20.844L35.1975 18.044C35.2239 17.8072 35.0383 17.6 34.7999 17.6H31.5999V15.6C31.5999 14.9372 32.1371 14.4 32.7999 14.4Z" fill="white"/>
</svg>
