<svg width="18" height="18" viewBox="0 0 18 18" fill="none" xmlns="http://www.w3.org/2000/svg">
<g clip-path="url(#clip0)">
<path d="M8.8 13.8C6 13.8 3.8 11.6 3.8 8.80005C3.8 6.00005 6 3.80005 8.8 3.80005" stroke="#434345" stroke-width="1.5" stroke-miterlimit="10" stroke-linecap="round" stroke-linejoin="round"/>
<path d="M8.8 10.8C9.90457 10.8 10.8 9.90462 10.8 8.80005C10.8 7.69548 9.90457 6.80005 8.8 6.80005C7.69543 6.80005 6.8 7.69548 6.8 8.80005C6.8 9.90462 7.69543 10.8 8.8 10.8Z" stroke="#434345" stroke-width="1.5" stroke-miterlimit="10" stroke-linecap="round" stroke-linejoin="round"/>
<path d="M8.8 6.80005V0.800049C4.4 0.800049 0.800003 4.40005 0.800003 8.80005C0.800003 13.2 4.4 16.8 8.8 16.8" stroke="#434345" stroke-width="1.5" stroke-miterlimit="10" stroke-linecap="round" stroke-linejoin="round"/>
<path d="M15.5 4.5C16.3 5.7 16.7 7.2 16.7 8.7C16.7 13.1 13.1 16.7 8.7 16.7" stroke="#434345" stroke-width="1.5" stroke-miterlimit="10" stroke-linecap="round" stroke-linejoin="round"/>
<path d="M13.6 7.5C13.7 7.9 13.7 8.3 13.7 8.7C13.7 11.5 11.5 13.7 8.7 13.7" stroke="#434345" stroke-width="1.5" stroke-miterlimit="10" stroke-linecap="round" stroke-linejoin="round"/>
</g>
<defs>
<clipPath id="clip0">
<rect width="17.5" height="17.5" fill="white"/>
</clipPath>
</defs>
</svg>
