<svg width="14" height="16" viewBox="0 0 14 16" fill="none" xmlns="http://www.w3.org/2000/svg">
<g clip-path="url(#clip0)">
<path d="M5 7.59998C4.7 8.19998 4.5 8.59998 4.2 8.69998C3.1 9.19998 2 9.69998 1.1 10.1C0.900003 10.2 0.800003 10.4 0.800003 10.6C0.800003 12.6 2.4 14.3 4.5 14.3H9.2C11.2 14.3 12.9 12.6 12.9 10.6C12.9 10.4 12.8 10.2 12.5 10.1C11.4 9.59998 10.3 9.09998 9.2 8.59998C9 8.49998 8.7 8.09998 8.5 7.59998" stroke="#BDBDBD" stroke-width="1.5" stroke-miterlimit="10" stroke-linecap="round" stroke-linejoin="round"/>
<path d="M10 4.29999C9.9 4.29999 9.9 4.29999 9.8 4.29999C9.8 2.09999 8.5 0.799988 6.8 0.799988C5.1 0.799988 3.8 2.19999 3.8 4.29999C3.7 4.29999 3.6 4.29999 3.6 4.29999C3.2 4.39999 3.1 4.89999 3.4 5.49999C3.6 5.99999 3.9 6.29999 4.2 6.29999C4.3 6.59999 4.5 6.89999 4.7 7.19999C5.2 7.79999 6 8.49999 6.7 8.49999C7.4 8.49999 8.1 7.79999 8.8 7.09999C9 6.89999 9.2 6.59999 9.4 6.19999C9.7 6.19999 10 5.89999 10.1 5.39999C10.3 4.89999 10.2 4.39999 10 4.29999Z" stroke="#BDBDBD" stroke-width="1.5" stroke-miterlimit="10" stroke-linecap="round" stroke-linejoin="round"/>
</g>
<defs>
<clipPath id="clip0">
<rect width="13.5" height="15.1" fill="white"/>
</clipPath>
</defs>
</svg>
