<svg width="48" height="48" viewBox="0 0 48 48" fill="none" xmlns="http://www.w3.org/2000/svg">
<path d="M22.9162 1.13267C23.5069 0.51536 24.4931 0.515361 25.0838 1.13267L28.0452 4.22771C28.4472 4.64777 29.0556 4.79774 29.6068 4.61258L33.6673 3.24833C34.4772 2.97622 35.3505 3.43455 35.5866 4.25565L36.7705 8.37242C36.9312 8.93116 37.4003 9.34672 37.9743 9.43889L42.2038 10.1179C43.0474 10.2534 43.6076 11.065 43.4351 11.9018L42.5702 16.0972C42.4529 16.6666 42.6751 17.2526 43.1405 17.601L46.57 20.1678C47.254 20.6797 47.3728 21.6588 46.8312 22.3195L44.1157 25.6325C43.7472 26.0821 43.6716 26.7042 43.9219 27.229L45.7656 31.0955C46.1334 31.8667 45.7837 32.7888 44.997 33.1222L41.053 34.7937C40.5177 35.0206 40.1617 35.5363 40.1394 36.1173L39.9751 40.3978C39.9423 41.2515 39.2041 41.9055 38.3526 41.8351L34.0835 41.4823C33.5041 41.4344 32.9492 41.7256 32.6595 42.2297L30.5248 45.9435C30.099 46.6842 29.1415 46.9202 28.4202 46.4622L24.8041 44.1658C24.3133 43.8542 23.6867 43.8542 23.1959 44.1658L19.5798 46.4622C18.8585 46.9202 17.901 46.6842 17.4752 45.9435L15.3405 42.2297C15.0508 41.7256 14.4959 41.4344 13.9165 41.4823L9.64739 41.8351C8.79591 41.9055 8.0577 41.2515 8.02493 40.3978L7.86064 36.1173C7.83834 35.5363 7.48234 35.0206 6.94705 34.7937L3.003 33.1222C2.21634 32.7888 1.86662 31.8667 2.23436 31.0955L4.07812 27.229C4.32836 26.7042 4.25282 26.0821 3.88427 25.6325L1.16877 22.3195C0.627152 21.6588 0.746029 20.6797 1.43004 20.1678L4.85947 17.601C5.32492 17.2526 5.54714 16.6666 5.42976 16.0972L4.5649 11.9018C4.3924 11.065 4.95264 10.2534 5.79622 10.1179L10.0257 9.43889C10.5997 9.34672 11.0688 8.93116 11.2295 8.37242L12.4134 4.25565C12.6495 3.43455 13.5228 2.97622 14.3327 3.24833L18.3932 4.61258C18.9444 4.79774 19.5528 4.64777 19.9548 4.22771L22.9162 1.13267Z" fill="#F89808"/>
<circle cx="24" cy="24" r="15" fill="#FFF6E9"/>
</svg>
