<svg width="26" height="26" viewBox="0 0 26 26" fill="none" xmlns="http://www.w3.org/2000/svg">
<path d="M24.6 13.1L21.8 15.1L23.3 18.2999C23.4 18.3999 23.4 18.6 23.3 18.7C23.1 18.9 23 19 22.8 19L19.3 19.2999L19 22.7999C19 22.9999 18.9 23.1 18.8 23.2C18.7 23.3 18.5 23.3 18.4 23.2L15.2 21.7L13.2 24.5C13.1 24.6 13 24.7 12.8 24.7C12.7 24.7 12.5 24.6 12.4 24.5L10.4 21.7L7.2 23.2C7.1 23.3 6.9 23.3 6.8 23.2C6.7 23.1 6.6 22.9999 6.6 22.7999L6.3 19.2999L2.7 19C2.5 19 2.4 18.8999 2.3 18.7999C2.2 18.6999 2.2 18.5 2.3 18.4L3.8 15.2L1 13.2C0.900003 13.1 0.800003 13 0.800003 12.8C0.800003 12.6 0.900003 12.5 1 12.4L3.8 10.4L2.3 7.19995C2.2 7.09995 2.2 6.89995 2.3 6.79995C2.4 6.69995 2.5 6.59995 2.7 6.59995L6.2 6.29995L6.5 2.79995C6.5 2.59995 6.6 2.49995 6.7 2.39995C6.8 2.29995 7 2.29995 7.1 2.39995L10.3 3.89995L12.3 1.09995C12.5 0.899951 12.9 0.899951 13.1 1.09995L15.1 3.89995L18.3 2.39995C18.4 2.29995 18.6 2.29995 18.7 2.39995C18.9 2.39995 19 2.49995 19 2.69995L19.3 6.19995L22.8 6.49995C23 6.49995 23.1 6.59995 23.2 6.69995C23.3 6.79995 23.3 6.99995 23.2 7.09995L21.7 10.3L24.5 12.3C24.6 12.4 24.7 12.5 24.7 12.7C24.8 12.9 24.7 13 24.6 13.1Z" stroke="#CC9E40" stroke-width="1.5" stroke-miterlimit="10" stroke-linecap="round" stroke-linejoin="round"/>
<path d="M10.7 17.3C10.5 17.3 10.3 17.2 10.1 17.1L8.1 15.1C8 14.8 8 14.6 8 14.4C8 14.2 8.1 14 8.2 13.9C8.5 13.6 9 13.6 9.3 13.9L10.7 15.4L14.8 10.9C15.1 10.6 15.6 10.6 15.8 10.9C16.1 11.2 16.1 11.7 15.9 12L11.2 17C11.1 17.2 10.9 17.3 10.7 17.3ZM17.4 9.89998C17.2 9.89998 17 9.79998 16.9 9.69998C16.7 9.59998 16.6 9.39998 16.6 9.19998C16.6 8.99998 16.7 8.79998 16.8 8.69998C17.1 8.39998 17.6 8.39998 17.9 8.69998C18.1 8.79998 18.1 8.99998 18.1 9.19998C18.1 9.39998 18 9.59998 17.9 9.69998C17.8 9.79998 17.6 9.89998 17.4 9.89998Z" fill="#CC9E40"/>
</svg>
